g core
v -5.779354 -2.020184 -10.01014
v -3.636826 -6.675472 -6.299169
v 3.814697E-06 -6.675472 -7.273655
v 3.814697E-06 -2.020184 -11.55872
v -10.01014 -2.020184 -5.779359
v -6.299168 -6.675472 -3.636828
v -11.55871 -2.020184 3.72529E-09
v -7.273651 -6.675472 3.72529E-09
v -16.46767 0.2274742 3.72529E-09
v -14.26142 0.2274742 -8.233837
v -8.233833 0.2274666 -14.26143
v 3.814697E-06 0.2274666 -16.46767
v -18.36844 1.914066 3.72529E-09
v -15.90754 1.914066 -9.184223
v -9.184219 1.914066 -15.90754
v 3.814697E-06 1.914066 -18.36845
v 5.779362 -2.020184 -10.01014
v 3.636829 -6.675472 -6.299169
v 8.233841 0.2274666 -14.26143
v 9.184227 1.914066 -15.90754
v -10.01014 -2.020184 5.779359
v -6.299168 -6.675472 3.636828
v -7.273651 -6.675472 3.72529E-09
v -11.55871 -2.020184 3.72529E-09
v -5.779354 -2.020184 10.01014
v -3.636826 -6.675472 6.299169
v 3.814697E-06 -2.020184 11.55872
v 3.814697E-06 -6.675472 7.273655
v -8.233833 0.2274666 14.26143
v -14.26142 0.2274742 8.233837
v -16.46767 0.2274742 3.72529E-09
v 3.814697E-06 0.2274666 16.46767
v -15.90754 1.914066 9.184223
v -18.36844 1.914066 3.72529E-09
v 3.814697E-06 1.914066 18.36845
v -9.184219 1.914066 15.90754
v 3.636829 -6.675472 6.299169
v 5.779362 -2.020184 10.01014
v 8.233841 0.2274666 14.26143
v 9.184227 1.914066 15.90754
v 3.814697E-06 6.675468 13.15634
v -6.578167 6.675468 11.39373
v -6.578167 6.675468 -11.39373
v 3.814697E-06 6.675468 -13.15634
v 6.578171 6.675468 -11.39373
v 6.578171 6.675468 11.39373
v 11.39373 6.675468 6.578172
v 11.39373 6.675468 -6.578172
v 13.15635 6.675468 3.725291E-09
v -11.39373 6.675468 -6.578172
v -11.39373 6.675468 6.578172
v -13.15634 6.675472 3.72529E-09
v -6.578167 6.675468 11.39373
v -9.184219 4.148373 15.90754
v -15.90754 4.148373 9.184223
v -11.39373 6.675468 6.578172
v -18.36844 4.148373 3.72529E-09
v -13.15634 6.675472 3.72529E-09
v -15.90754 4.148373 -9.184223
v -11.39373 6.675468 -6.578172
v -9.184219 4.148373 -15.90754
v -6.578167 6.675468 -11.39373
v 3.814697E-06 4.148373 -18.36845
v 3.814697E-06 6.675468 -13.15634
v 3.814697E-06 6.675468 13.15634
v 3.814697E-06 4.148373 18.36845
v 6.578171 6.675468 -11.39373
v 9.184227 4.148373 -15.90754
v 11.39373 6.675468 -6.578172
v 15.90755 4.148373 -9.184223
v 13.15635 6.675468 3.725291E-09
v 18.36844 4.148373 3.725291E-09
v 11.39373 6.675468 6.578172
v 15.90755 4.148373 9.184223
v 6.578171 6.675468 11.39373
v 9.184227 4.148373 15.90754
v -9.184219 4.148373 15.90754
v -9.184219 1.914066 15.90754
v -15.90754 1.914066 9.184223
v -15.90754 4.148373 9.184223
v -18.36844 1.914066 3.72529E-09
v -18.36844 4.148373 3.72529E-09
v 3.814697E-06 4.148373 18.36845
v 3.814697E-06 1.914066 18.36845
v 9.184227 1.914066 15.90754
v 9.184227 4.148373 15.90754
v -18.36844 4.148373 3.72529E-09
v -18.36844 1.914066 3.72529E-09
v -15.90754 1.914066 -9.184223
v -15.90754 4.148373 -9.184223
v -9.184219 1.914066 -15.90754
v -9.184219 4.148373 -15.90754
v 3.814697E-06 1.914066 -18.36845
v 3.814697E-06 4.148373 -18.36845
v 9.184227 4.148373 -15.90754
v 9.184227 1.914066 -15.90754
v 10.01014 -2.020184 -5.779359
v 5.779362 -2.020184 -10.01014
v 3.636829 -6.675472 -6.299169
v 6.299171 -6.675472 -3.636828
v 11.55873 -2.020184 3.725288E-09
v 7.273655 -6.675472 3.725289E-09
v 10.01014 -2.020184 5.779359
v 6.299171 -6.675472 3.636828
v 5.779362 -2.020184 10.01014
v 3.636829 -6.675472 6.299169
v 8.233841 0.2274666 14.26143
v 14.26143 0.2274666 8.233837
v 16.46768 0.2274666 3.725288E-09
v 14.26143 0.2274666 -8.233837
v 8.233841 0.2274666 -14.26143
v 15.90755 1.914066 9.184223
v 18.36844 1.914066 3.725289E-09
v 15.90755 1.914066 -9.184223
v 9.184227 1.914066 -15.90754
v 9.184227 1.914066 15.90754
v 9.184227 4.148373 15.90754
v 15.90755 4.148373 9.184223
v 15.90755 1.914066 9.184223
v 9.184227 1.914066 15.90754
v 18.36844 1.914066 3.725289E-09
v 18.36844 4.148373 3.725291E-09
v 15.90755 1.914066 -9.184223
v 15.90755 4.148373 -9.184223
v 9.184227 1.914066 -15.90754
v 9.184227 4.148373 -15.90754
vt 0.2864972 0.8056431
vt 0.2864972 0.7037015
vt 0.3432768 0.6914684
vt 0.383097 0.7853336
vt 0.1897551 0.7858071
vt 0.2291737 0.6917284
vt 0.1098893 0.730295
vt 0.1799116 0.6580898
vt 0.0439745 0.785247
vt 0.154073 0.865352
vt 0.2864972 0.8928786
vt 0.4191212 0.8647308
vt 0.01373802 0.8127787
vt 0.1373129 0.902656
vt 0.2864972 0.9338976
vt 0.4360417 0.901969
vt 0.4627255 0.7295037
vt 0.3923948 0.6575741
vt 0.5288776 0.7841962
vt 0.5592323 0.8116098
vt 0.1897551 0.7858071
vt 0.2291737 0.6917284
vt 0.1799116 0.6580898
vt 0.1098893 0.730295
vt 0.2864972 0.8056431
vt 0.2864972 0.7037015
vt 0.383097 0.7853336
vt 0.3432768 0.6914684
vt 0.2864972 0.8928786
vt 0.154073 0.865352
vt 0.0439745 0.785247
vt 0.4191212 0.8647308
vt 0.1373129 0.902656
vt 0.01373802 0.8127787
vt 0.4360417 0.901969
vt 0.2864972 0.9338976
vt 0.3923948 0.6575741
vt 0.4627255 0.7295037
vt 0.5288776 0.7841962
vt 0.5592323 0.8116098
vt 0.5659546 0.3315563
vt 0.5351589 0.2162205
vt 0.1357175 0.2158701
vt 0.1047193 0.3311519
vt 0.1355152 0.4464877
vt 0.5349567 0.446838
vt 0.4504707 0.531176
vt 0.2198531 0.5309739
vt 0.3351349 0.5619718
vt 0.2202032 0.1315322
vt 0.4508209 0.1317343
vt 0.3355393 0.1007364
vt 0.5351589 0.2162205
vt 0.6143215 0.1706081
vt 0.4965718 0.05265177
vt 0.4508209 0.1317343
vt 0.3356193 0.009373475
vt 0.3355393 0.1007364
vt 0.1745912 0.05236939
vt 0.2202032 0.1315322
vt 0.0566348 0.1701192
vt 0.1357175 0.2158701
vt 0.01335625 0.3310719
vt 0.1047193 0.3311519
vt 0.5659546 0.3315563
vt 0.6573176 0.3316363
vt 0.1355152 0.4464877
vt 0.05635243 0.4921
vt 0.2198531 0.5309739
vt 0.1741022 0.6100564
vt 0.3351349 0.5619718
vt 0.3350546 0.6533347
vt 0.4504707 0.531176
vt 0.4960829 0.6103388
vt 0.5349567 0.446838
vt 0.6140394 0.4925889
vt 0.3124217 0.9922762
vt 0.3124217 0.955937
vt 0.1600857 0.9559369
vt 0.1600857 0.9922761
vt 0.007746902 0.9559369
vt 0.007746902 0.9922761
vt 0.4647574 0.9922764
vt 0.4647574 0.9559371
vt 0.6170958 0.9559371
vt 0.6170958 0.9922764
vt 0.6170958 0.9922761
vt 0.6170958 0.9559368
vt 0.4647574 0.9559369
vt 0.4647574 0.9922762
vt 0.3124217 0.955937
vt 0.3124217 0.9922763
vt 0.1600857 0.9559371
vt 0.1600857 0.9922764
vt 0.007746902 0.9922764
vt 0.007746902 0.9559372
vt 0.383097 0.7853336
vt 0.4627255 0.7295037
vt 0.3923948 0.6575741
vt 0.3432768 0.6914684
vt 0.2864972 0.8056431
vt 0.2864972 0.7037015
vt 0.1897551 0.7858071
vt 0.2291737 0.6917284
vt 0.1098893 0.730295
vt 0.1799116 0.6580898
vt 0.0439745 0.785247
vt 0.154073 0.865352
vt 0.2864972 0.8928786
vt 0.4191212 0.8647308
vt 0.5288776 0.7841962
vt 0.1373129 0.902656
vt 0.2864972 0.9338976
vt 0.4360417 0.901969
vt 0.5592323 0.8116098
vt 0.01373802 0.8127787
vt 0.007746902 0.9922767
vt 0.1600857 0.9922767
vt 0.1600857 0.9559376
vt 0.007746902 0.9559376
vt 0.3124217 0.9559376
vt 0.3124217 0.9922768
vt 0.4647574 0.9559376
vt 0.4647574 0.9922768
vt 0.6170958 0.9559376
vt 0.6170958 0.9922768
vn -0.2826524 -0.8248821 -0.4895682
vn -0.3678791 -0.6772446 -0.637185
vn 0 -0.6772447 -0.7357578
vn 0 -0.8248823 -0.5653045
vn -0.4895687 -0.824882 -0.2826523
vn -0.6371852 -0.6772445 -0.3678789
vn -0.5653052 -0.8248818 0
vn -0.7357581 -0.6772444 0
vn -0.5627519 -0.8266258 0
vn -0.4873578 -0.8266256 -0.281376
vn -0.2813763 -0.8266253 -0.4873581
vn 0 -0.8266252 -0.5627529
vn -0.6637077 -0.747992 0
vn -0.5747883 -0.7479915 -0.3318541
vn -0.3318547 -0.7479905 -0.5747891
vn 0 -0.7479901 -0.6637099
vn 0.2826523 -0.8248823 -0.489568
vn 0.3678791 -0.6772447 -0.6371849
vn 0.2813762 -0.8266253 -0.4873582
vn 0.3318547 -0.7479904 -0.5747893
vn -0.4895687 -0.824882 0.2826523
vn -0.6371852 -0.6772445 0.3678789
vn -0.7357581 -0.6772444 0
vn -0.5653052 -0.8248818 0
vn -0.2826524 -0.8248822 0.4895681
vn -0.3678791 -0.6772446 0.637185
vn 0 -0.8248823 0.5653045
vn 0 -0.6772447 0.7357578
vn -0.2813764 -0.8266253 0.4873581
vn -0.4873578 -0.8266256 0.281376
vn -0.5627519 -0.8266258 0
vn 0 -0.8266252 0.5627529
vn -0.5747883 -0.7479915 0.3318541
vn -0.6637077 -0.747992 0
vn 0 -0.7479901 0.6637099
vn -0.3318548 -0.7479905 0.5747892
vn 0.3678791 -0.6772447 0.6371849
vn 0.2826523 -0.8248823 0.489568
vn 0.2813762 -0.8266253 0.4873582
vn 0.3318548 -0.7479904 0.5747893
vn 0 1 0
vn 0 1 0
vn 0 1 0
vn 0 1 0
vn 0 1 0
vn 0 1 0
vn 0 1 0
vn 0 1 0
vn 0 1 0
vn 0 1 0
vn 0 1 0
vn 0 1 0
vn -0.2181378 0.8998129 0.377826
vn -0.2181379 0.8998129 0.377826
vn -0.377826 0.8998129 0.218138
vn -0.3778261 0.8998129 0.2181379
vn -0.436276 0.8998129 0
vn -0.436276 0.8998129 0
vn -0.377826 0.8998129 -0.218138
vn -0.3778261 0.8998129 -0.2181379
vn -0.2181379 0.8998129 -0.377826
vn -0.2181378 0.8998129 -0.377826
vn 0 0.899813 -0.4362758
vn 0 0.899813 -0.4362758
vn 0 0.899813 0.4362758
vn 0 0.899813 0.4362758
vn 0.2181377 0.899813 -0.377826
vn 0.2181378 0.8998131 -0.3778259
vn 0.3778258 0.8998131 -0.2181377
vn 0.3778258 0.8998131 -0.2181377
vn 0.4362758 0.8998129 0
vn 0.4362759 0.8998129 0
vn 0.3778258 0.8998131 0.2181377
vn 0.3778258 0.8998131 0.2181377
vn 0.2181377 0.8998131 0.3778259
vn 0.2181378 0.8998131 0.3778258
vn -0.5 0 0.8660254
vn -0.5 0 0.8660254
vn -0.8660254 0 0.5000001
vn -0.8660254 0 0.5000001
vn -1 0 0
vn -1 0 0
vn 0 0 1
vn 0 0 1
vn 0.4999999 0 0.8660255
vn 0.4999999 0 0.8660255
vn -1 0 0
vn -1 0 0
vn -0.8660254 0 -0.5000001
vn -0.8660254 0 -0.5000001
vn -0.5 0 -0.8660254
vn -0.5 0 -0.8660254
vn 0 0 -1
vn 0 0 -1
vn 0.4999999 0 -0.8660255
vn 0.4999999 0 -0.8660255
vn 0.4895681 -0.8248822 -0.2826524
vn 0.2826523 -0.8248823 -0.489568
vn 0.3678791 -0.6772447 -0.6371849
vn 0.6371848 -0.6772447 -0.3678791
vn 0.5653043 -0.8248825 0
vn 0.7357576 -0.677245 0
vn 0.4895681 -0.8248822 0.2826524
vn 0.6371848 -0.6772447 0.3678791
vn 0.2826523 -0.8248823 0.489568
vn 0.3678791 -0.6772447 0.6371849
vn 0.2813762 -0.8266253 0.4873582
vn 0.487358 -0.8266254 0.2813762
vn 0.5627527 -0.8266253 0
vn 0.4873579 -0.8266255 -0.2813762
vn 0.2813762 -0.8266253 -0.4873582
vn 0.5747892 -0.7479907 0.3318543
vn 0.6637094 -0.7479905 0
vn 0.5747892 -0.7479907 -0.3318543
vn 0.3318547 -0.7479904 -0.5747893
vn 0.3318548 -0.7479904 0.5747893
vn 0.4999999 0 0.8660255
vn 0.8660256 0 0.4999996
vn 0.8660256 0 0.4999996
vn 0.4999999 0 0.8660255
vn 1 0 0
vn 1 0 0
vn 0.8660256 0 -0.4999996
vn 0.8660256 0 -0.4999996
vn 0.4999999 0 -0.8660255
vn 0.4999999 0 -0.8660255
g core_0
f 3/3/3 2/2/2 1/1/1
f 4/4/4 3/3/3 1/1/1
f 1/1/1 2/2/2 5/5/5
f 2/2/2 6/6/6 5/5/5
f 5/5/5 6/6/6 7/7/7
f 6/6/6 8/8/8 7/7/7
f 5/5/5 7/7/7 9/9/9
f 10/10/10 5/5/5 9/9/9
f 1/1/1 5/5/5 10/10/10
f 11/11/11 1/1/1 10/10/10
f 4/4/4 1/1/1 11/11/11
f 12/12/12 4/4/4 11/11/11
f 10/10/10 9/9/9 13/13/13
f 14/14/14 10/10/10 13/13/13
f 11/11/11 10/10/10 14/14/14
f 15/15/15 11/11/11 14/14/14
f 12/12/12 11/11/11 15/15/15
f 16/16/16 12/12/12 15/15/15
f 3/3/3 4/4/4 17/17/17
f 18/18/18 3/3/3 17/17/17
f 4/4/4 12/12/12 19/19/19
f 17/17/17 4/4/4 19/19/19
f 12/12/12 16/16/16 20/20/20
f 19/19/19 12/12/12 20/20/20
f 23/23/23 22/22/22 21/21/21
f 24/24/24 23/23/23 21/21/21
f 21/21/21 22/22/22 25/25/25
f 22/22/22 26/26/26 25/25/25
f 25/25/25 26/26/26 27/27/27
f 26/26/26 28/28/28 27/27/27
f 21/21/21 25/25/25 29/29/29
f 30/30/30 21/21/21 29/29/29
f 24/24/24 21/21/21 30/30/30
f 31/31/31 24/24/24 30/30/30
f 25/25/25 27/27/27 32/32/32
f 29/29/29 25/25/25 32/32/32
f 31/31/31 30/30/30 33/33/33
f 34/34/34 31/31/31 33/33/33
f 29/29/29 32/32/32 35/35/35
f 36/36/36 29/29/29 35/35/35
f 30/30/30 29/29/29 36/36/36
f 33/33/33 30/30/30 36/36/36
f 28/28/28 37/37/37 27/27/27
f 37/37/37 38/38/38 27/27/27
f 27/27/27 38/38/38 32/32/32
f 38/38/38 39/39/39 32/32/32
f 32/32/32 39/39/39 35/35/35
f 39/39/39 40/40/40 35/35/35
f 43/43/43 42/42/42 41/41/41
f 44/44/44 43/43/43 41/41/41
f 44/44/44 41/41/41 45/45/45
f 41/41/41 46/46/46 45/45/45
f 46/46/46 47/47/47 45/45/45
f 47/47/47 48/48/48 45/45/45
f 49/49/49 48/48/48 47/47/47
f 43/43/43 50/50/50 42/42/42
f 50/50/50 51/51/51 42/42/42
f 52/52/52 51/51/51 50/50/50
f 55/55/55 54/54/54 53/53/53
f 56/56/56 55/55/55 53/53/53
f 57/57/57 55/55/55 56/56/56
f 58/58/58 57/57/57 56/56/56
f 59/59/59 57/57/57 58/58/58
f 60/60/60 59/59/59 58/58/58
f 61/61/61 59/59/59 60/60/60
f 62/62/62 61/61/61 60/60/60
f 63/63/63 61/61/61 62/62/62
f 64/64/64 63/63/63 62/62/62
f 53/53/53 54/54/54 65/65/65
f 54/54/54 66/66/66 65/65/65
f 63/63/63 64/64/64 67/67/67
f 68/68/68 63/63/63 67/67/67
f 68/68/68 67/67/67 69/69/69
f 70/70/70 68/68/68 69/69/69
f 70/70/70 69/69/69 71/71/71
f 72/72/72 70/70/70 71/71/71
f 72/72/72 71/71/71 73/73/73
f 74/74/74 72/72/72 73/73/73
f 74/74/74 73/73/73 75/75/75
f 76/76/76 74/74/74 75/75/75
f 76/76/76 75/75/75 65/65/65
f 66/66/66 76/76/76 65/65/65
f 79/79/79 78/78/78 77/77/77
f 80/80/80 79/79/79 77/77/77
f 81/81/81 79/79/79 80/80/80
f 82/82/82 81/81/81 80/80/80
f 77/77/77 78/78/78 83/83/83
f 78/78/78 84/84/84 83/83/83
f 84/84/84 85/85/85 83/83/83
f 85/85/85 86/86/86 83/83/83
f 89/89/89 88/88/88 87/87/87
f 90/90/90 89/89/89 87/87/87
f 91/91/91 89/89/89 90/90/90
f 92/92/92 91/91/91 90/90/90
f 93/93/93 91/91/91 92/92/92
f 94/94/94 93/93/93 92/92/92
f 93/93/93 94/94/94 95/95/95
f 96/96/96 93/93/93 95/95/95
f 99/99/99 98/98/98 97/97/97
f 100/100/100 99/99/99 97/97/97
f 100/100/100 97/97/97 101/101/101
f 102/102/102 100/100/100 101/101/101
f 102/102/102 101/101/101 103/103/103
f 104/104/104 102/102/102 103/103/103
f 104/104/104 103/103/103 105/105/105
f 106/106/106 104/104/104 105/105/105
f 105/105/105 103/103/103 107/107/107
f 103/103/103 108/108/108 107/107/107
f 103/103/103 101/101/101 108/108/108
f 101/101/101 109/109/109 108/108/108
f 101/101/101 97/97/97 109/109/109
f 97/97/97 110/110/110 109/109/109
f 97/97/97 98/98/98 110/110/110
f 98/98/98 111/111/111 110/110/110
f 108/108/108 109/109/109 112/112/112
f 109/109/109 113/113/113 112/112/112
f 109/109/109 110/110/110 113/113/113
f 110/110/110 114/114/114 113/113/113
f 110/110/110 111/111/111 114/114/114
f 111/111/111 115/115/115 114/114/114
f 108/108/108 112/112/112 116/116/116
f 107/107/107 108/108/108 116/116/116
f 119/119/119 118/118/118 117/117/117
f 120/120/120 119/119/119 117/117/117
f 119/119/119 121/121/121 118/118/118
f 121/121/121 122/122/122 118/118/118
f 121/121/121 123/123/123 122/122/122
f 123/123/123 124/124/124 122/122/122
f 123/123/123 125/125/125 124/124/124
f 125/125/125 126/126/126 124/124/124
