g dome05
v -0.3019993 1.015816 -0.0794735
v -0.001445055 1.047605 0.001445055
v -0.3135592 1.015816 0.001445055
v -0.590994 0.9262277 -0.1575021
v -0.6112236 0.9262277 0.001445055
v -0.859759 0.7788404 -0.2297506
v -0.8886584 0.7788404 0.001445055
v -1.093845 0.5794343 -0.2933295
v -1.131414 0.5794343 0.001445055
v -1.284581 0.3366787 -0.3453485
v -1.33082 0.3366787 0.001445055
v -1.429078 0.05924392 -0.3829178
v -1.478207 0.05924392 0.001445055
v -1.284581 0.3366787 0.3453486
v -1.429078 0.05924392 0.3829179
v -1.093845 0.5794343 0.2933296
v -0.859759 0.7788404 0.2297508
v -0.590994 0.9262277 0.1575021
v -0.3019993 1.015816 0.0794735
v -0.7701706 0.7788404 -0.4436066
v -0.530305 0.9262277 -0.3048892
v -0.27021 1.015816 -0.1575021
v -1.151643 0.3366787 0.6661326
v -1.278801 0.05924392 0.7383813
v -0.9811367 0.5794343 0.5649844
v -0.7701706 0.7788404 0.4436067
v -0.530305 0.9262277 0.3048893
v -0.27021 1.015816 0.1575021
v -0.2210809 1.015816 -0.2210808
v -0.4320469 0.9262277 -0.4320469
v -0.6285633 0.7788404 -0.6285632
v -0.79907 0.5794343 -0.7990699
v -0.9811367 0.5794343 -0.5649844
v -1.151643 0.3366787 -0.6661325
v -1.278801 0.05924392 -0.7383811
v -0.9406773 0.3366787 -0.9406773
v -1.044716 0.05924392 -1.044715
v -0.2210809 1.015816 0.2210809
v -0.1575021 1.015816 -0.2702099
v -0.3048893 0.9262277 -0.530305
v -0.4436067 0.7788404 -0.7701705
v -0.5649844 0.5794343 -0.9811366
v -0.6661326 0.3366787 -1.151643
v -0.7383813 0.05924392 -1.278801
v -0.1575021 1.015816 0.27021
v -0.4320469 0.9262277 0.4320469
v -0.6285633 0.7788404 0.6285633
v -0.79907 0.5794343 0.79907
v -0.9406773 0.3366787 0.9406773
v -1.044716 0.05924392 1.044716
v -0.6661326 0.3366787 1.151643
v -0.7383813 0.05924392 1.278801
v -0.5649844 0.5794343 0.9811367
v -0.4436067 0.7788404 0.7701706
v -0.3048893 0.9262277 0.530305
v -0.3453486 0.3366787 1.284581
v -0.3829179 0.05924392 1.429078
v -0.2933296 0.5794343 1.093845
v -0.2297508 0.7788404 0.859759
v -0.1575021 0.9262277 0.590994
v -0.0794735 1.015816 0.3019993
v -0.001445055 0.3366787 1.33082
v -0.001445055 0.05924392 1.478207
v -0.001445055 0.5794343 1.131414
v -0.001445055 0.7788404 0.8886584
v -0.001445055 0.9262277 0.6112236
v -0.001445055 1.015816 0.3135592
v 0.3453485 0.3366787 1.284581
v 0.3829178 0.05924392 1.429078
v 0.2933295 0.5794343 1.093845
v 0.2297506 0.7788404 0.859759
v 0.1575021 0.9262277 0.590994
v 0.0794735 1.015816 0.3019993
v 0.6661325 0.3366787 1.151643
v 0.7383811 0.05924392 1.278801
v 0.5649844 0.5794343 0.9811367
v 0.4436066 0.7788404 0.7701706
v 0.3048892 0.9262277 0.530305
v 0.1575021 1.015816 0.27021
v 0.9406773 0.3366787 0.9406773
v 1.044715 0.05924392 1.044716
v 1.151643 0.3366787 0.6661326
v 0.9811366 0.5794343 0.5649844
v 1.093844 0.5794343 0.2933296
v 0.8597589 0.7788404 0.2297508
v 0.8886583 0.7788404 0.001445055
v 0.6112235 0.9262277 0.001445055
v 0.5909939 0.9262277 0.1575021
v 0.3135591 1.015816 0.001445055
v 0.3019993 1.015816 0.0794735
v 1.131414 0.5794343 0.001445055
v 1.284581 0.3366787 0.3453486
v 1.33082 0.3366787 0.001445055
v 1.429078 0.05924392 0.3829179
v 1.478207 0.05924392 0.001445055
v 1.284581 0.3366787 -0.3453485
v 1.429078 0.05924392 -0.3829178
v 1.093844 0.5794343 -0.2933295
v 0.8597589 0.7788404 -0.2297506
v 0.5909939 0.9262277 -0.1575021
v 0.3019993 1.015816 -0.0794735
v 0.2702099 1.015816 0.1575021
v 0.530305 0.9262277 0.3048893
v 0.7701705 0.7788404 0.4436067
v 1.151643 0.3366787 -0.6661325
v 1.278801 0.05924392 -0.7383811
v 0.9811366 0.5794343 -0.5649844
v 0.7701705 0.7788404 -0.4436066
v 0.530305 0.9262277 -0.3048892
v 0.2702099 1.015816 -0.1575021
v 0.2210808 1.015816 0.2210809
v 0.4320469 0.9262277 0.4320469
v 0.6285632 0.7788404 0.6285633
v 0.7990699 0.5794343 0.79907
v 0.9406773 0.3366787 -0.9406773
v 1.044715 0.05924392 -1.044715
v 0.7990699 0.5794343 -0.7990699
v 0.5649844 0.5794343 -0.9811366
v 0.4436066 0.7788404 -0.7701705
v 0.2297506 0.7788404 -0.8597589
v 0.1575021 0.9262277 -0.5909939
v -0.001445055 0.9262277 -0.6112235
v -0.001445055 1.015816 -0.3135591
v -0.0794735 1.015816 -0.3019993
v -0.1575021 0.9262277 -0.5909939
v -0.2297508 0.7788404 -0.8597589
v -0.2933296 0.5794343 -1.093844
v -0.3453486 0.3366787 -1.284581
v -0.3829179 0.05924392 -1.429078
v -0.001445055 0.7788404 -0.8886583
v -0.001445055 0.5794343 -1.131414
v -0.001445055 0.3366787 -1.33082
v -0.001445055 0.05924392 -1.478207
v 0.2933295 0.5794343 -1.093844
v 0.3453485 0.3366787 -1.284581
v 0.3829178 0.05924392 -1.429078
v 0.6661325 0.3366787 -1.151643
v 0.7383811 0.05924392 -1.278801
v 1.278801 0.05924392 0.7383813
v 0.0794735 1.015816 -0.3019993
v 0.1575021 1.015816 -0.2702099
v 0.3048892 0.9262277 -0.530305
v 0.2210808 1.015816 -0.2210808
v 0.4320469 0.9262277 -0.4320469
v 0.6285632 0.7788404 -0.6285632
vt 0.403989 0.5235499
vt 0.5018115 0.5018115
vt 0.403989 0.5018115
vt 0.3134126 0.5489113
vt 0.3097895 0.5018115
vt 0.2300823 0.5706496
vt 0.2228362 0.5018115
vt 0.1576211 0.592388
vt 0.146752 0.5018115
vt 0.09965222 0.6068802
vt 0.08515999 0.5018115
vt 0.05255248 0.6177494
vt 0.03806025 0.5018115
vt 0.09965222 0.3931198
vt 0.05255248 0.3822507
vt 0.1576211 0.4076121
vt 0.2300823 0.4293504
vt 0.3134126 0.4510888
vt 0.403989 0.4764501
vt 0.2590667 0.6394877
vt 0.3351509 0.596011
vt 0.4148582 0.5489113
vt 0.1395058 0.2916742
vt 0.09965222 0.2699359
vt 0.1938517 0.3242818
vt 0.2590667 0.3605123
vt 0.3351509 0.403989
vt 0.4148582 0.4510888
vt 0.4293504 0.5706496
vt 0.3641354 0.6358647
vt 0.3025434 0.6974566
vt 0.2481976 0.7518025
vt 0.1938517 0.6757183
vt 0.1395058 0.7083258
vt 0.09965222 0.7300642
vt 0.2047209 0.7952791
vt 0.1721134 0.8278867
vt 0.4293504 0.4293504
vt 0.4510888 0.5851418
vt 0.403989 0.6648491
vt 0.3605123 0.7409333
vt 0.3242818 0.8061484
vt 0.2916742 0.8604942
vt 0.2699359 0.9003478
vt 0.4510888 0.4148582
vt 0.3641354 0.3641354
vt 0.3025434 0.3025434
vt 0.2481976 0.2481976
vt 0.2047209 0.2047209
vt 0.1721134 0.1721134
vt 0.2916742 0.1395058
vt 0.2699359 0.09965222
vt 0.3242818 0.1938517
vt 0.3605123 0.2590667
vt 0.403989 0.3351509
vt 0.3931198 0.09965222
vt 0.3822507 0.05255248
vt 0.4076121 0.1576211
vt 0.4293504 0.2300823
vt 0.4510888 0.3134126
vt 0.4764501 0.403989
vt 0.5018115 0.08515999
vt 0.5018115 0.03806025
vt 0.5018115 0.146752
vt 0.5018115 0.2228362
vt 0.5018115 0.3097895
vt 0.5018115 0.403989
vt 0.6068802 0.09965222
vt 0.6177494 0.05255248
vt 0.592388 0.1576211
vt 0.5706496 0.2300823
vt 0.5489113 0.3134126
vt 0.5235499 0.403989
vt 0.7083258 0.1395058
vt 0.7300642 0.09965222
vt 0.6757183 0.1938517
vt 0.6394877 0.2590667
vt 0.596011 0.3351509
vt 0.5489113 0.4148582
vt 0.7952791 0.2047209
vt 0.8278867 0.1721134
vt 0.8604942 0.2916742
vt 0.8061484 0.3242818
vt 0.8423789 0.4076121
vt 0.7699178 0.4293504
vt 0.7771639 0.5018115
vt 0.6902105 0.5018115
vt 0.6865875 0.4510888
vt 0.596011 0.5018115
vt 0.596011 0.4764501
vt 0.8532481 0.5018115
vt 0.9003478 0.3931198
vt 0.91484 0.5018115
vt 0.9474475 0.3822507
vt 0.9619398 0.5018115
vt 0.9003478 0.6068802
vt 0.9474475 0.6177494
vt 0.8423789 0.592388
vt 0.7699178 0.5706496
vt 0.6865875 0.5489113
vt 0.596011 0.5235499
vt 0.5851418 0.4510888
vt 0.6648491 0.403989
vt 0.7409333 0.3605123
vt 0.8604942 0.7083258
vt 0.9003478 0.7300642
vt 0.8061484 0.6757183
vt 0.7409333 0.6394877
vt 0.6648491 0.596011
vt 0.5851418 0.5489113
vt 0.5706496 0.4293504
vt 0.6358647 0.3641354
vt 0.6974566 0.3025434
vt 0.7518025 0.2481976
vt 0.7952791 0.7952791
vt 0.8278867 0.8278867
vt 0.7518025 0.7518025
vt 0.6757183 0.8061484
vt 0.6394877 0.7409333
vt 0.5706496 0.7699178
vt 0.5489113 0.6865875
vt 0.5018115 0.6902105
vt 0.5018115 0.596011
vt 0.4764501 0.596011
vt 0.4510888 0.6865875
vt 0.4293504 0.7699178
vt 0.4076121 0.8423789
vt 0.3931198 0.9003478
vt 0.3822507 0.9474475
vt 0.5018115 0.7771639
vt 0.5018115 0.8532481
vt 0.5018115 0.91484
vt 0.5018115 0.9619398
vt 0.592388 0.8423789
vt 0.6068802 0.9003478
vt 0.6177494 0.9474475
vt 0.7083258 0.8604942
vt 0.7300642 0.9003478
vt 0.9003478 0.2699359
vt 0.5235499 0.596011
vt 0.5489113 0.5851418
vt 0.596011 0.6648491
vt 0.5706496 0.5706496
vt 0.6358647 0.6358647
vt 0.6974566 0.6974566
vn -0.1934044 0.9700285 -0.1471034
vn -0.01418346 0.9998987 -0.001220703
vn -0.1934044 0.9700285 -0.1471034
vn -0.3726254 0.9102882 -0.180349
vn -0.3726254 0.9102882 -0.180349
vn -0.5219761 0.8206778 -0.2324414
vn -0.5518463 0.8206778 -0.1481678
vn -0.6713269 0.701197 -0.2400894
vn -0.701197 0.701197 -0.1290172
vn -0.7908076 0.5518463 -0.2647434
vn -0.8206778 0.5518463 -0.1481679
vn -0.8505479 0.4622358 -0.2508113
vn -0.8804181 0.4622358 -0.1058398
vn -0.7908076 0.5518463 0.2647434
vn -0.8505479 0.4622358 0.2508113
vn -0.6713269 0.701197 0.2400894
vn -0.5219761 0.8206778 0.2324414
vn -0.3726254 0.9102882 0.180349
vn -0.1934044 0.9700285 0.1471034
vn -0.492106 0.8206778 -0.2903786
vn -0.3427552 0.9102882 -0.2321514
vn -0.1635343 0.9700285 -0.1797253
vn -0.7310672 0.5518463 0.4012561
vn -0.7609373 0.4622358 0.4553157
vn -0.6115866 0.701197 0.3664486
vn -0.492106 0.8206778 0.2903786
vn -0.3427552 0.9102882 0.2321514
vn -0.1635343 0.9700285 0.1797253
vn -0.1336641 0.9700285 -0.2029251
vn -0.2830149 0.9102882 -0.3021224
vn -0.4024955 0.8206778 -0.405568
vn -0.492106 0.701197 -0.5159016
vn -0.6115866 0.701197 -0.3664486
vn -0.7310672 0.5518463 -0.4012561
vn -0.7609373 0.4622358 -0.4553157
vn -0.5817164 0.5518463 -0.5975548
vn -0.6115866 0.4622358 -0.6421059
vn -0.1336641 0.9700285 0.2029251
vn -0.1037939 0.9700285 -0.2197077
vn -0.1934044 0.9102882 -0.3660193
vn -0.2830149 0.8206778 -0.4963775
vn -0.3427552 0.701197 -0.6251733
vn -0.4024955 0.5518463 -0.7303856
vn -0.4323657 0.4622358 -0.774208
vn -0.1037939 0.9700285 0.2197077
vn -0.2830149 0.9102882 0.3021224
vn -0.4024955 0.8206778 0.405568
vn -0.492106 0.701197 0.5159016
vn -0.5817164 0.5518463 0.5975548
vn -0.6115866 0.4622358 0.6421059
vn -0.4024955 0.5518463 0.7303856
vn -0.4323657 0.4622358 0.774208
vn -0.3427552 0.701197 0.6251733
vn -0.2830149 0.8206778 0.4963775
vn -0.1934044 0.9102882 0.3660193
vn -0.2232746 0.5518463 0.8035012
vn -0.2232746 0.4622358 0.858188
vn -0.1934044 0.701197 0.6862342
vn -0.1336641 0.8206778 0.5555375
vn -0.1037939 0.9102882 0.4007521
vn -0.04405361 0.9700285 0.2389643
vn -0.01418346 0.5518463 0.8338253
vn -0.01418346 0.4622358 0.8866436
vn -0.01418346 0.701197 0.7128264
vn -0.01418346 0.8206778 0.5712152
vn -0.01418346 0.9102882 0.4137321
vn -0.01418346 0.9700285 0.2425768
vn 0.2247778 0.5518463 0.8030819
vn 0.2247778 0.4622358 0.8577954
vn 0.1949077 0.701197 0.6858088
vn 0.1351674 0.8206778 0.5551737
vn 0.1052972 0.9102882 0.4003597
vn 0.04555684 0.9700285 0.2386823
vn 0.4039988 0.5518463 0.7295552
vn 0.4338689 0.4622358 0.7733665
vn 0.3442584 0.701197 0.6243467
vn 0.2845181 0.8206778 0.4955174
vn 0.1949077 0.9102882 0.365221
vn 0.1052972 0.9700285 0.2189913
vn 0.5832197 0.5518463 0.5960876
vn 0.6130899 0.4622358 0.6406707
vn 0.7325705 0.5518463 0.3985049
vn 0.6130899 0.701197 0.3639279
vn 0.6728302 0.701197 0.2358438
vn 0.5234794 0.8206778 0.2290357
vn 0.5533496 0.8206778 -0.142451
vn 0.3741286 0.9102882 -0.1772094
vn 0.3741286 0.9102882 0.1772094
vn 0.1949077 0.9700285 -0.1451056
vn 0.1949077 0.9700285 0.1451056
vn 0.7027004 0.701197 -0.1205607
vn 0.7923108 0.5518463 0.26021
vn 0.822181 0.5518463 -0.1395856
vn 0.8520511 0.4622358 0.2456561
vn 0.8819213 0.4622358 -0.09248178
vn 0.7923108 0.5518463 -0.26021
vn 0.8520511 0.4622358 -0.2456561
vn 0.6728302 0.701197 -0.2358438
vn 0.5234794 0.8206778 -0.2290357
vn 0.3741286 0.9102882 -0.1772094
vn 0.1949077 0.9700285 -0.1451056
vn 0.1650375 0.9700285 0.178346
vn 0.3442584 0.9102882 0.2299163
vn 0.4936092 0.8206778 0.2878158
vn 0.7325705 0.5518463 -0.3985049
vn 0.7624407 0.4622358 -0.4527938
vn 0.6130899 0.701197 -0.3639279
vn 0.4936092 0.8206778 -0.2878158
vn 0.3442584 0.9102882 -0.2299163
vn 0.1650375 0.9700285 -0.178346
vn 0.1351674 0.9700285 0.2019269
vn 0.2845181 0.9102882 0.3007072
vn 0.4039988 0.8206778 0.4040706
vn 0.4936092 0.701197 0.5144634
vn 0.5832197 0.5518463 -0.5960876
vn 0.6130899 0.4622358 -0.6406707
vn 0.4936092 0.701197 -0.5144634
vn 0.3442584 0.701197 -0.6243467
vn 0.2845181 0.8206778 -0.4955174
vn 0.1351674 0.8206778 -0.5551737
vn 0.1052972 0.9102882 -0.4003597
vn -0.01418346 0.9102882 -0.4137321
vn -0.01418346 0.9700285 -0.2425768
vn -0.04405361 0.9700285 -0.2389643
vn -0.1037939 0.9102882 -0.4007521
vn -0.1336641 0.8206778 -0.5555375
vn -0.1934044 0.701197 -0.6862342
vn -0.2232746 0.5518463 -0.8035012
vn -0.2232746 0.4622358 -0.858188
vn -0.01418346 0.8206778 -0.5712152
vn -0.01418346 0.701197 -0.7128264
vn -0.01418346 0.5518463 -0.8338253
vn -0.01418346 0.4622358 -0.8866436
vn 0.1949077 0.701197 -0.6858088
vn 0.2247778 0.5518463 -0.8030819
vn 0.2247778 0.4622358 -0.8577954
vn 0.4039988 0.5518463 -0.7295552
vn 0.4338689 0.4622358 -0.7733665
vn 0.7624407 0.4622358 0.4527938
vn 0.04555684 0.9700285 -0.2386823
vn 0.1052972 0.9700285 -0.2189913
vn 0.1949077 0.9102882 -0.365221
vn 0.1351674 0.9700285 -0.2019269
vn 0.2845181 0.9102882 -0.3007072
vn 0.4039988 0.8206778 -0.4040706
g dome05_0
f 3/3/3 2/2/2 1/1/1
f 3/3/3 1/1/1 4/4/4
f 5/5/5 3/3/3 4/4/4
f 5/5/5 4/4/4 6/6/6
f 7/7/7 5/5/5 6/6/6
f 7/7/7 6/6/6 8/8/8
f 9/9/9 7/7/7 8/8/8
f 9/9/9 8/8/8 10/10/10
f 11/11/11 9/9/9 10/10/10
f 11/11/11 10/10/10 12/12/12
f 13/13/13 11/11/11 12/12/12
f 14/14/14 11/11/11 13/13/13
f 15/15/15 14/14/14 13/13/13
f 16/16/16 9/9/9 11/11/11
f 14/14/14 16/16/16 11/11/11
f 17/17/17 7/7/7 9/9/9
f 16/16/16 17/17/17 9/9/9
f 18/18/18 5/5/5 7/7/7
f 17/17/17 18/18/18 7/7/7
f 19/19/19 3/3/3 5/5/5
f 18/18/18 19/19/19 5/5/5
f 6/6/6 4/4/4 20/20/20
f 4/4/4 21/21/21 20/20/20
f 4/4/4 1/1/1 21/21/21
f 1/1/1 22/22/22 21/21/21
f 1/1/1 2/2/2 22/22/22
f 19/19/19 2/2/2 3/3/3
f 23/23/23 14/14/14 15/15/15
f 24/24/24 23/23/23 15/15/15
f 25/25/25 16/16/16 14/14/14
f 23/23/23 25/25/25 14/14/14
f 26/26/26 17/17/17 16/16/16
f 25/25/25 26/26/26 16/16/16
f 27/27/27 18/18/18 17/17/17
f 26/26/26 27/27/27 17/17/17
f 28/28/28 19/19/19 18/18/18
f 27/27/27 28/28/28 18/18/18
f 28/28/28 2/2/2 19/19/19
f 22/22/22 2/2/2 29/29/29
f 22/22/22 29/29/29 30/30/30
f 21/21/21 22/22/22 30/30/30
f 21/21/21 30/30/30 31/31/31
f 20/20/20 21/21/21 31/31/31
f 20/20/20 31/31/31 32/32/32
f 33/33/33 20/20/20 32/32/32
f 6/6/6 20/20/20 33/33/33
f 8/8/8 6/6/6 33/33/33
f 8/8/8 33/33/33 34/34/34
f 10/10/10 8/8/8 34/34/34
f 10/10/10 34/34/34 35/35/35
f 12/12/12 10/10/10 35/35/35
f 33/33/33 32/32/32 36/36/36
f 34/34/34 33/33/33 36/36/36
f 34/34/34 36/36/36 37/37/37
f 35/35/35 34/34/34 37/37/37
f 38/38/38 28/28/28 27/27/27
f 38/38/38 2/2/2 28/28/28
f 29/29/29 2/2/2 39/39/39
f 29/29/29 39/39/39 40/40/40
f 30/30/30 29/29/29 40/40/40
f 30/30/30 40/40/40 41/41/41
f 31/31/31 30/30/30 41/41/41
f 31/31/31 41/41/41 42/42/42
f 32/32/32 31/31/31 42/42/42
f 32/32/32 42/42/42 43/43/43
f 36/36/36 32/32/32 43/43/43
f 36/36/36 43/43/43 44/44/44
f 37/37/37 36/36/36 44/44/44
f 45/45/45 2/2/2 38/38/38
f 45/45/45 38/38/38 46/46/46
f 46/46/46 38/38/38 27/27/27
f 46/46/46 27/27/27 26/26/26
f 47/47/47 46/46/46 26/26/26
f 47/47/47 26/26/26 25/25/25
f 48/48/48 47/47/47 25/25/25
f 48/48/48 25/25/25 23/23/23
f 49/49/49 48/48/48 23/23/23
f 49/49/49 23/23/23 24/24/24
f 50/50/50 49/49/49 24/24/24
f 51/51/51 49/49/49 50/50/50
f 52/52/52 51/51/51 50/50/50
f 53/53/53 48/48/48 49/49/49
f 51/51/51 53/53/53 49/49/49
f 54/54/54 47/47/47 48/48/48
f 53/53/53 54/54/54 48/48/48
f 55/55/55 46/46/46 47/47/47
f 54/54/54 55/55/55 47/47/47
f 55/55/55 45/45/45 46/46/46
f 56/56/56 51/51/51 52/52/52
f 57/57/57 56/56/56 52/52/52
f 58/58/58 53/53/53 51/51/51
f 56/56/56 58/58/58 51/51/51
f 59/59/59 54/54/54 53/53/53
f 58/58/58 59/59/59 53/53/53
f 60/60/60 55/55/55 54/54/54
f 59/59/59 60/60/60 54/54/54
f 60/60/60 61/61/61 55/55/55
f 61/61/61 45/45/45 55/55/55
f 61/61/61 2/2/2 45/45/45
f 62/62/62 56/56/56 57/57/57
f 63/63/63 62/62/62 57/57/57
f 64/64/64 58/58/58 56/56/56
f 62/62/62 64/64/64 56/56/56
f 65/65/65 59/59/59 58/58/58
f 64/64/64 65/65/65 58/58/58
f 66/66/66 60/60/60 59/59/59
f 65/65/65 66/66/66 59/59/59
f 67/67/67 61/61/61 60/60/60
f 66/66/66 67/67/67 60/60/60
f 67/67/67 2/2/2 61/61/61
f 68/68/68 62/62/62 63/63/63
f 69/69/69 68/68/68 63/63/63
f 70/70/70 64/64/64 62/62/62
f 68/68/68 70/70/70 62/62/62
f 71/71/71 65/65/65 64/64/64
f 70/70/70 71/71/71 64/64/64
f 72/72/72 66/66/66 65/65/65
f 71/71/71 72/72/72 65/65/65
f 73/73/73 67/67/67 66/66/66
f 72/72/72 73/73/73 66/66/66
f 73/73/73 2/2/2 67/67/67
f 74/74/74 68/68/68 69/69/69
f 75/75/75 74/74/74 69/69/69
f 76/76/76 70/70/70 68/68/68
f 74/74/74 76/76/76 68/68/68
f 77/77/77 71/71/71 70/70/70
f 76/76/76 77/77/77 70/70/70
f 78/78/78 72/72/72 71/71/71
f 77/77/77 78/78/78 71/71/71
f 79/79/79 73/73/73 72/72/72
f 78/78/78 79/79/79 72/72/72
f 79/79/79 2/2/2 73/73/73
f 80/80/80 74/74/74 75/75/75
f 81/81/81 80/80/80 75/75/75
f 82/82/82 80/80/80 81/81/81
f 82/82/82 83/83/83 80/80/80
f 84/84/84 83/83/83 82/82/82
f 84/84/84 85/85/85 83/83/83
f 86/86/86 85/85/85 84/84/84
f 86/86/86 87/87/87 85/85/85
f 87/87/87 88/88/88 85/85/85
f 87/87/87 89/89/89 88/88/88
f 89/89/89 2/2/2 90/90/90
f 89/89/89 90/90/90 88/88/88
f 91/91/91 86/86/86 84/84/84
f 91/91/91 84/84/84 92/92/92
f 92/92/92 84/84/84 82/82/82
f 93/93/93 91/91/91 92/92/92
f 93/93/93 92/92/92 94/94/94
f 95/95/95 93/93/93 94/94/94
f 96/96/96 93/93/93 95/95/95
f 97/97/97 96/96/96 95/95/95
f 98/98/98 91/91/91 93/93/93
f 96/96/96 98/98/98 93/93/93
f 99/99/99 86/86/86 91/91/91
f 98/98/98 99/99/99 91/91/91
f 100/100/100 87/87/87 86/86/86
f 99/99/99 100/100/100 86/86/86
f 101/101/101 89/89/89 87/87/87
f 100/100/100 101/101/101 87/87/87
f 101/101/101 2/2/2 89/89/89
f 90/90/90 2/2/2 102/102/102
f 90/90/90 102/102/102 103/103/103
f 88/88/88 90/90/90 103/103/103
f 88/88/88 103/103/103 104/104/104
f 85/85/85 88/88/88 104/104/104
f 85/85/85 104/104/104 83/83/83
f 105/105/105 96/96/96 97/97/97
f 106/106/106 105/105/105 97/97/97
f 107/107/107 98/98/98 96/96/96
f 105/105/105 107/107/107 96/96/96
f 108/108/108 99/99/99 98/98/98
f 107/107/107 108/108/108 98/98/98
f 109/109/109 100/100/100 99/99/99
f 108/108/108 109/109/109 99/99/99
f 110/110/110 101/101/101 100/100/100
f 109/109/109 110/110/110 100/100/100
f 110/110/110 2/2/2 101/101/101
f 102/102/102 2/2/2 111/111/111
f 102/102/102 111/111/111 112/112/112
f 103/103/103 102/102/102 112/112/112
f 103/103/103 112/112/112 113/113/113
f 104/104/104 103/103/103 113/113/113
f 104/104/104 113/113/113 114/114/114
f 83/83/83 104/104/104 114/114/114
f 83/83/83 114/114/114 80/80/80
f 115/115/115 105/105/105 106/106/106
f 116/116/116 115/115/115 106/106/106
f 117/117/117 107/107/107 105/105/105
f 115/115/115 117/117/117 105/105/105
f 118/118/118 117/117/117 115/115/115
f 118/118/118 119/119/119 117/117/117
f 120/120/120 119/119/119 118/118/118
f 120/120/120 121/121/121 119/119/119
f 122/122/122 121/121/121 120/120/120
f 122/122/122 123/123/123 121/121/121
f 124/124/124 123/123/123 122/122/122
f 124/124/124 2/2/2 123/123/123
f 39/39/39 2/2/2 124/124/124
f 39/39/39 124/124/124 125/125/125
f 125/125/125 124/124/124 122/122/122
f 40/40/40 39/39/39 125/125/125
f 40/40/40 125/125/125 126/126/126
f 41/41/41 40/40/40 126/126/126
f 41/41/41 126/126/126 127/127/127
f 42/42/42 41/41/41 127/127/127
f 42/42/42 127/127/127 128/128/128
f 43/43/43 42/42/42 128/128/128
f 43/43/43 128/128/128 129/129/129
f 44/44/44 43/43/43 129/129/129
f 125/125/125 122/122/122 130/130/130
f 126/126/126 125/125/125 130/130/130
f 126/126/126 130/130/130 131/131/131
f 127/127/127 126/126/126 131/131/131
f 127/127/127 131/131/131 132/132/132
f 128/128/128 127/127/127 132/132/132
f 128/128/128 132/132/132 133/133/133
f 129/129/129 128/128/128 133/133/133
f 131/131/131 130/130/130 134/134/134
f 130/130/130 120/120/120 134/134/134
f 130/130/130 122/122/122 120/120/120
f 131/131/131 134/134/134 135/135/135
f 132/132/132 131/131/131 135/135/135
f 132/132/132 135/135/135 136/136/136
f 133/133/133 132/132/132 136/136/136
f 134/134/134 120/120/120 118/118/118
f 134/134/134 118/118/118 137/137/137
f 135/135/135 134/134/134 137/137/137
f 135/135/135 137/137/137 138/138/138
f 136/136/136 135/135/135 138/138/138
f 137/137/137 118/118/118 115/115/115
f 137/137/137 115/115/115 116/116/116
f 138/138/138 137/137/137 116/116/116
f 92/92/92 82/82/82 139/139/139
f 94/94/94 92/92/92 139/139/139
f 139/139/139 82/82/82 81/81/81
f 123/123/123 2/2/2 140/140/140
f 123/123/123 140/140/140 121/121/121
f 140/140/140 2/2/2 141/141/141
f 140/140/140 141/141/141 142/142/142
f 121/121/121 140/140/140 142/142/142
f 121/121/121 142/142/142 119/119/119
f 141/141/141 2/2/2 143/143/143
f 141/141/141 143/143/143 144/144/144
f 142/142/142 141/141/141 144/144/144
f 142/142/142 144/144/144 145/145/145
f 119/119/119 142/142/142 145/145/145
f 119/119/119 145/145/145 117/117/117
f 117/117/117 145/145/145 107/107/107
f 145/145/145 108/108/108 107/107/107
f 145/145/145 144/144/144 108/108/108
f 144/144/144 109/109/109 108/108/108
f 144/144/144 143/143/143 109/109/109
f 143/143/143 110/110/110 109/109/109
f 143/143/143 2/2/2 110/110/110
f 111/111/111 2/2/2 79/79/79
f 111/111/111 79/79/79 78/78/78
f 112/112/112 111/111/111 78/78/78
f 112/112/112 78/78/78 77/77/77
f 113/113/113 112/112/112 77/77/77
f 113/113/113 77/77/77 76/76/76
f 114/114/114 113/113/113 76/76/76
f 114/114/114 76/76/76 74/74/74
f 80/80/80 114/114/114 74/74/74
