g Group41593
<<<<<<< HEAD
v 0.1888101 -0.853324 0.3439468
v 0.2079053 -0.2117243 0.943537
v 0.7349336 -0.4828766 0.07852316
v 0.8227716 -0.03604823 0.4107801
v 0.03031963 -0.5592575 0.7888657
v 0.2384576 -0.893424 0.2923898
v 0.04559582 0.7182133 0.659018
v -0.05369937 0.9110751 0.2236469
v 0.4599623 0.5024372 0.5291705
v 0.1563482 0.9225322 -0.09524345
v 0.3473005 0.7334895 -0.1563482
v 0.7521193 0.3305801 0.527261
v 0.7712145 0.443242 -0.2155434
v 0.8399574 0.2923898 0.2962087
v -0.7907752 0.5368086 0.03269458
v -0.7010276 0.3114849 0.4470611
v -0.8136895 -0.22891 -0.08378631
v -0.867156 -0.26901 -0.2900147
v -0.8289657 -0.1754434 0.3439468
v 0.3473005 0.7334895 -0.1563482
v 0.2861957 0.06515646 -0.9277954
v 0.7712145 0.443242 -0.2155434
v -0.4222373 0.5654515 -0.5649861
v -0.1720898 -0.1334339 -0.977443
v 0.2900147 -0.5363432 -0.7387526
v 0.7196574 -0.3721243 -0.3778528
v 0.773124 0.1319898 -0.6260908
v -0.3019373 0.8537894 -0.2804672
v 0.1563482 0.9225322 -0.09524345
v 0.1888101 -0.853324 0.3439468
v -0.7105752 -0.3301147 -0.05323392
v 0.03031963 -0.5592575 0.7888657
v -0.355404 -0.8514144 -0.1582577
v -0.6762038 -0.601267 -0.4313195
v -0.5368086 -0.2957433 0.5845467
v -0.867156 -0.26901 -0.2900147
v -0.2160088 -0.4236814 0.8175085
v -0.8289657 -0.1754434 0.3439468
v -0.8136895 -0.22891 -0.08378631
v 0.2900147 -0.5363432 -0.7387526
v 0.1315244 -0.9163383 -0.1964481
v 0.7196574 -0.3721243 -0.3778528
v 0.7349336 -0.4828766 0.07852316
v 0.2384576 -0.893424 0.2923898
v -0.1071659 -0.9220668 -0.1754434
v -0.04224217 -0.3644862 -0.6719193
v -0.1071659 -0.9220668 -0.1754434
v 0.2900147 -0.5363432 -0.7387526
v -0.6762038 -0.601267 -0.4313195
v -0.5043467 -0.2155434 -0.7788526
v -0.1720898 -0.1334339 -0.977443
v -0.355404 -0.8514144 -0.1582577
v -0.8289657 -0.1754434 0.3439468
v -0.7010276 0.3114849 0.4470611
v -0.5368086 -0.2957433 0.5845467
v -0.04224217 0.1338993 0.8022323
v -0.2160088 -0.4236814 0.8175085
v -0.04033267 -0.04368633 0.9759989
v -0.195004 0.399323 0.7774085
v 0.265191 0.1606326 0.6380134
v 0.7463907 -0.1105196 0.6322848
v -0.04033267 -0.04368633 0.9759989
v 0.7521193 0.3305801 0.527261
v 0.2079053 -0.2117243 0.943537
v -0.04224217 0.1338993 0.8022323
v -0.195004 0.399323 0.7774085
v 0.04559582 0.7182133 0.659018
v 0.4599623 0.5024372 0.5291705
v 0.7024717 0.01168984 -0.104791
v 0.7349336 -0.4828766 0.07852316
v 0.8227716 -0.03604823 0.4107801
v 0.7196574 -0.3721243 -0.3778528
v 0.8399574 0.2923898 0.2962087
v 0.773124 0.1319898 -0.6260908
v 0.7712145 0.443242 -0.2155434
v -0.443242 0.8461514 -0.04750538
v -0.05369937 0.9110751 0.2236469
v -0.195004 0.399323 0.7774085
v -0.7010276 0.3114849 0.4470611
v -0.7907752 0.5368086 0.03269458
v 0.04559582 0.7182133 0.659018
v -0.867156 -0.26901 -0.2900147
v -0.5043467 -0.2155434 -0.7788526
v -0.7945942 0.2790231 -0.433229
v -0.4222373 0.5654515 -0.5649861
v -0.7907752 0.5368086 0.03269458
v -0.3019373 0.8537894 -0.2804672
v -0.6762038 -0.601267 -0.4313195
v -0.1720898 -0.1334339 -0.977443
v -0.443242 0.8461514 -0.04750538
v 0.1563482 0.9225322 -0.09524345
v -0.05369937 0.9110751 0.2236469
v -0.443242 0.8461514 -0.04750538
v -0.3019373 0.8537894 -0.2804672
v 0.2079053 -0.2117243 0.943537
v 0.03031963 -0.5592575 0.7888657
v -0.04033267 -0.04368633 0.9759989
v -0.2160088 -0.4236814 0.8175085
v 0.2079053 -0.2117243 0.943537
v 0.7463907 -0.1105196 0.6322848
v 0.8227716 -0.03604823 0.4107801
v 0.7463907 -0.1105196 0.6322848
v 0.8399574 0.2923898 0.2962087
v 0.8227716 -0.03604823 0.4107801
v 0.7521193 0.3305801 0.527261
v -0.1071659 -0.9220668 -0.1754434
v -0.355404 -0.8514144 -0.1582577
v 0.2384576 -0.893424 0.2923898
v 0.1888101 -0.853324 0.3439468
=======
v 0.18881 -0.853324 0.3439469
v 0.2079052 -0.2117243 0.9435371
v 0.7349336 -0.4828765 0.07852318
v 0.8227716 -0.0360482 0.4107802
v 0.03031963 -0.5592574 0.7888657
v 0.2384576 -0.893424 0.2923898
v 0.04559581 0.7182133 0.6590182
v -0.05369938 0.9110752 0.2236469
v 0.4599623 0.5024372 0.5291706
v 0.1563481 0.9225323 -0.0952434
v 0.3473004 0.7334895 -0.1563481
v 0.7521193 0.3305802 0.5272611
v 0.7712145 0.443242 -0.2155433
v 0.8399574 0.2923898 0.2962088
v -0.7907752 0.5368087 0.03269463
v -0.7010276 0.311485 0.4470611
v -0.8136895 -0.22891 -0.08378626
v -0.8671561 -0.26901 -0.2900147
v -0.8289657 -0.1754434 0.3439469
v 0.3473004 0.7334895 -0.1563481
v 0.2861957 0.06515652 -0.9277954
v 0.7712145 0.443242 -0.2155433
v -0.4222373 0.5654515 -0.5649861
v -0.1720898 -0.1334339 -0.977443
v 0.2900147 -0.5363432 -0.7387526
v 0.7196574 -0.3721242 -0.3778528
v 0.773124 0.1319898 -0.6260908
v -0.3019374 0.8537894 -0.2804671
v 0.1563481 0.9225323 -0.0952434
v 0.18881 -0.853324 0.3439469
v -0.7105753 -0.3301147 -0.0532339
v 0.03031963 -0.5592574 0.7888657
v -0.355404 -0.8514144 -0.1582577
v -0.6762038 -0.601267 -0.4313194
v -0.5368087 -0.2957433 0.5845467
v -0.8671561 -0.26901 -0.2900147
v -0.2160088 -0.4236813 0.8175085
v -0.8289657 -0.1754434 0.3439469
v -0.8136895 -0.22891 -0.08378626
v 0.2900147 -0.5363432 -0.7387526
v 0.1315243 -0.9163383 -0.1964481
v 0.7196574 -0.3721242 -0.3778528
v 0.7349336 -0.4828765 0.07852318
v 0.2384576 -0.893424 0.2923898
v -0.107166 -0.9220668 -0.1754434
v -0.04224224 -0.3644861 -0.6719193
v -0.107166 -0.9220668 -0.1754434
v 0.2900147 -0.5363432 -0.7387526
v -0.6762038 -0.601267 -0.4313194
v -0.5043468 -0.2155433 -0.7788526
v -0.1720898 -0.1334339 -0.977443
v -0.355404 -0.8514144 -0.1582577
v -0.8289657 -0.1754434 0.3439469
v -0.7010276 0.311485 0.4470611
v -0.5368087 -0.2957433 0.5845467
v -0.04224224 0.1338993 0.8022323
v -0.2160088 -0.4236813 0.8175085
v -0.04033272 -0.04368629 0.9759989
v -0.1950041 0.399323 0.7774085
v 0.2651909 0.1606327 0.6380134
v 0.7463907 -0.1105196 0.6322848
v -0.04033272 -0.04368629 0.9759989
v 0.7521193 0.3305802 0.5272611
v 0.2079052 -0.2117243 0.9435371
v -0.04224224 0.1338993 0.8022323
v -0.1950041 0.399323 0.7774085
v 0.04559581 0.7182133 0.6590182
v 0.4599623 0.5024372 0.5291706
v 0.7024717 0.01168988 -0.104791
v 0.7349336 -0.4828765 0.07852318
v 0.8227716 -0.0360482 0.4107802
v 0.7196574 -0.3721242 -0.3778528
v 0.8399574 0.2923898 0.2962088
v 0.773124 0.1319898 -0.6260908
v 0.7712145 0.443242 -0.2155433
v -0.443242 0.8461514 -0.04750533
v -0.05369938 0.9110752 0.2236469
v -0.1950041 0.399323 0.7774085
v -0.7010276 0.311485 0.4470611
v -0.7907752 0.5368087 0.03269463
v 0.04559581 0.7182133 0.6590182
v -0.8671561 -0.26901 -0.2900147
v -0.5043468 -0.2155433 -0.7788526
v -0.7945943 0.2790231 -0.433229
v -0.4222373 0.5654515 -0.5649861
v -0.7907752 0.5368087 0.03269463
v -0.3019374 0.8537894 -0.2804671
v -0.6762038 -0.601267 -0.4313194
v -0.1720898 -0.1334339 -0.977443
v -0.443242 0.8461514 -0.04750533
v 0.1563481 0.9225323 -0.0952434
v -0.05369938 0.9110752 0.2236469
v -0.443242 0.8461514 -0.04750533
v -0.3019374 0.8537894 -0.2804671
v 0.2079052 -0.2117243 0.9435371
v 0.03031963 -0.5592574 0.7888657
v -0.04033272 -0.04368629 0.9759989
v -0.2160088 -0.4236813 0.8175085
v 0.2079052 -0.2117243 0.9435371
v 0.7463907 -0.1105196 0.6322848
v 0.8227716 -0.0360482 0.4107802
v 0.7463907 -0.1105196 0.6322848
v 0.8399574 0.2923898 0.2962088
v 0.8227716 -0.0360482 0.4107802
v 0.7521193 0.3305802 0.5272611
v -0.107166 -0.9220668 -0.1754434
v -0.355404 -0.8514144 -0.1582577
v 0.2384576 -0.893424 0.2923898
v 0.18881 -0.853324 0.3439469
>>>>>>> 6d5f1550931c572d52883107850b24b40c30b745
vt 0.7160204 0.4421408
vt 0.7590586 0.2073869
vt 0.5360424 0.3795398
vt 0.5360424 0.2308623
<<<<<<< HEAD
vt 0.7981842 0.3130262
vt 0.7003701 0.4577911
vt 0.2739006 0.4108403
=======
vt 0.7981843 0.3130262
vt 0.7003701 0.4577911
vt 0.2739005 0.4108403
>>>>>>> 6d5f1550931c572d52883107850b24b40c30b745
vt 0.4030152 0.4382283
vt 0.2895508 0.2817257
vt 0.4851791 0.3795398
vt 0.4851791 0.3052011
<<<<<<< HEAD
vt 0.2739006 0.1917367
=======
vt 0.2739005 0.1917367
>>>>>>> 6d5f1550931c572d52883107850b24b40c30b745
vt 0.4773539 0.1643487
vt 0.332589 0.152611
vt 0.9820748 0.4264906
vt 0.9703371 0.2973759
vt 0.782534 0.3756272
vt 0.7473209 0.4264906
<<<<<<< HEAD
vt 0.8333973 0.2739006
=======
vt 0.8333973 0.2739005
>>>>>>> 6d5f1550931c572d52883107850b24b40c30b745
vt 0.4069278 0.9038235
vt 0.1643487 0.7864466
vt 0.2934634 0.9977251
vt 0.3717147 0.6573319
vt 0.1408733 0.6573319
vt 0.003933565 0.7707963
vt 0.00784613 0.935124
vt 0.1643487 0.935124
<<<<<<< HEAD
vt 0.4695288 0.727758
=======
vt 0.4695288 0.7277581
>>>>>>> 6d5f1550931c572d52883107850b24b40c30b745
vt 0.4734414 0.8686104
vt 0.1995618 0.5790806
vt 0.1252231 0.2895508
vt 0.05088434 0.5908183
vt 0.2621629 0.3912775
vt 0.2504252 0.2621629
<<<<<<< HEAD
vt 0.003933565 0.4186655
=======
vt 0.003933565 0.4186654
>>>>>>> 6d5f1550931c572d52883107850b24b40c30b745
vt 0.1486985 0.2152121
vt 0.003933565 0.5321298
vt 0.00784613 0.3130262
vt 0.1056603 0.2543377
vt 0.9703371 0.01958383
<<<<<<< HEAD
vt 0.8020968 0.07044718
=======
vt 0.8020968 0.07044717
>>>>>>> 6d5f1550931c572d52883107850b24b40c30b745
vt 0.9859874 0.1839115
vt 0.8803481 0.2660754
vt 0.7160204 0.1721739
vt 0.7590586 0.01958383
<<<<<<< HEAD
vt 0.575168 0.9233863
=======
vt 0.5751681 0.9233863
>>>>>>> 6d5f1550931c572d52883107850b24b40c30b745
vt 0.4812665 0.7473209
vt 0.4812665 0.9585994
vt 0.6729822 0.7590586
vt 0.7042827 0.9038235
<<<<<<< HEAD
vt 0.6534193 0.9977251
=======
vt 0.6534194 0.9977251
>>>>>>> 6d5f1550931c572d52883107850b24b40c30b745
vt 0.5438675 0.7160204
vt 0.4421408 2.1E-05
vt 0.4421408 0.1369608
vt 0.5516927 2.1E-05
<<<<<<< HEAD
vt 0.6495067 0.1604362
vt 0.6612445 2.1E-05
vt 0.7003701 0.117398
vt 0.5908183 0.2152121
vt 0.755146 0.5829931
=======
vt 0.6495068 0.1604362
vt 0.6612445 2.1E-05
vt 0.7003701 0.1173979
vt 0.5908183 0.2152121
vt 0.755146 0.5829932
>>>>>>> 6d5f1550931c572d52883107850b24b40c30b745
vt 0.755146 0.4343157
vt 0.629944 0.6260314
vt 0.8646979 0.4930042
vt 0.629944 0.5477801
<<<<<<< HEAD
vt 0.692545 0.6495067
vt 0.7316706 0.7238455
vt 0.845135 0.7121078
vt 0.8646979 0.5829931
vt 0.8333973 0.8529602
vt 0.7003701 0.8138345
vt 0.7434083 0.962512
vt 0.7981842 0.7355832
=======
vt 0.692545 0.6495068
vt 0.7316707 0.7238455
vt 0.845135 0.7121078
vt 0.8646979 0.5829932
vt 0.8333973 0.8529602
vt 0.7003701 0.8138345
vt 0.7434083 0.962512
vt 0.7981843 0.7355832
>>>>>>> 6d5f1550931c572d52883107850b24b40c30b745
vt 0.8333973 0.9898999
vt 0.9468617 0.7629712
vt 0.9468617 0.8999109
vt 0.08218487 0.2073869
vt 0.2112995 0.2034744
vt 0.2386875 2.1E-05
vt 0.07435974 2.1E-05
vt 0.003933565 0.1056603
vt 0.2895508 0.1017477
vt 0.5164796 0.692545
vt 0.602556 0.539955
<<<<<<< HEAD
vt 0.4304032 0.575168
=======
vt 0.4304031 0.5751681
>>>>>>> 6d5f1550931c572d52883107850b24b40c30b745
vt 0.3991026 0.449966
vt 0.2973759 0.6142937
vt 0.2817257 0.4343157
vt 0.6338565 0.692545
vt 0.629944 0.4382283
<<<<<<< HEAD
vt 0.2426 0.4969168
vt 0.4304032 0.152611
vt 0.4304032 0.05088434
=======
vt 0.2426 0.4969167
vt 0.4304031 0.152611
vt 0.4304031 0.05088434
>>>>>>> 6d5f1550931c572d52883107850b24b40c30b745
vt 0.3012885 0.05088434
vt 0.2973759 0.1252231
vt 0.9468617 0.7238455
vt 0.9468617 0.6103811
vt 0.8686104 0.7355832
vt 0.872523 0.6142937
vt 0.5360424 0.9977251
vt 0.3717147 0.9664245
vt 0.3130262 0.9977251
vt 0.1291356 0.6221188
vt 0.003933565 0.6886324
<<<<<<< HEAD
vt 0.09783513 0.6768947
=======
vt 0.09783512 0.6768947
>>>>>>> 6d5f1550931c572d52883107850b24b40c30b745
vt 0.00784613 0.6221188
vt 0.05088434 0.9429492
vt 0.003933565 0.9977251
vt 0.2034744 0.9742497
vt 0.2034744 0.9977251
<<<<<<< HEAD
vn -0.07358283 -0.7788456 0.6228845
vn 0.5894171 -0.5262742 0.6128808
vn 0.8104171 -0.5578457 0.178976
vn 0.8735599 -0.4315599 0.2250537
vn -0.3577257 -0.8104171 0.4639575
vn 0.3052742 -0.9367027 0.1714516
vn 0.21056 0.5471541 0.8101153
vn -0.07358283 0.9260113 0.3702549
vn 0.5262742 0.7050113 0.4753888
vn 0.3318347 0.9433375 0
vn 0.3999885 0.7997256 -0.4477144
vn 0.5578457 0.6734399 0.4850638
vn 0.7157028 0.6418684 -0.2752717
vn 0.9998456 0.01043993 -0.01413786
vn -0.8944399 0.4208685 -0.1511523
vn -0.7365827 0.2945828 0.6088242
vn -0.9891542 -0.02113146 0.145353
vn -0.9575827 -0.1158457 -0.263847
vn -0.8944399 -0.2737028 0.353644
vn 0.3999885 0.7997256 -0.4477144
vn 0.3368457 0.3892971 -0.8573114
vn 0.7157028 0.6418684 -0.2752717
vn -0.2314399 0.610297 -0.7576101
vn -0.2314399 -0.02113146 -0.9726197
vn 0.2421314 -0.6209885 -0.7454836
vn 0.7788456 -0.4631314 -0.4229762
vn 0.9051313 0.04201144 -0.4230513
vn -0.2314399 0.7997256 -0.5539626
vn 0.3318347 0.9433375 0
vn -0.07358283 -0.7788456 0.6228845
vn -0.610297 -0.7157028 0.339569
vn -0.3577257 -0.8104171 0.4639575
vn -0.5787256 -0.6841313 0.443893
vn -0.4208685 -0.7157028 -0.5573503
vn -0.610297 -0.3684171 0.7012891
vn -0.9575827 -0.1158457 -0.263847
vn -0.5787256 -0.08427429 0.8111563
vn -0.8944399 -0.2737028 0.353644
vn -0.9891542 -0.02113146 0.145353
vn 0.2421314 -0.6209885 -0.7454836
vn 0.4947028 -0.8104171 -0.3138364
vn 0.7788456 -0.4631314 -0.4229762
vn 0.8104171 -0.5578457 0.178976
vn 0.3052742 -0.9367027 0.1714516
vn -0.1682971 -0.8104171 -0.5611598
vn -0.1998685 -0.6841313 -0.7014392
vn -0.1682971 -0.8104171 -0.5611598
vn 0.2421314 -0.6209885 -0.7454836
vn -0.4208685 -0.7157028 -0.5573503
vn -0.5787256 -0.1474171 -0.8020878
vn -0.2314399 -0.02113146 -0.9726197
vn -0.5787256 -0.6841313 0.443893
vn -0.8944399 -0.2737028 0.353644
vn -0.7365827 0.2945828 0.6088242
vn -0.610297 -0.3684171 0.7012891
vn -0.4208685 0.1682971 0.891373
vn -0.5787256 -0.08427429 0.8111563
vn 0.08427429 0.3261542 0.9415526
vn -0.3892971 0.5471541 0.7409927
vn 0.3052742 0.3261542 0.8946682
vn 0.5262742 0.2945828 0.7976568
vn 0.08427429 0.3261542 0.9415526
vn 0.5578457 0.6734399 0.4850638
vn 0.5894171 -0.5262742 0.6128808
vn -0.4208685 0.1682971 0.891373
vn -0.3892971 0.5471541 0.7409927
vn 0.21056 0.5471541 0.8101153
vn 0.5262742 0.7050113 0.4753888
vn 0.9964666 -0.08398949 0
vn 0.8104171 -0.5578457 0.178976
vn 0.8735599 -0.4315599 0.2250537
vn 0.7788456 -0.4631314 -0.4229762
vn 0.9998456 0.01043993 -0.01413786
vn 0.9051313 0.04201144 -0.4230513
vn 0.7157028 0.6418684 -0.2752717
vn -0.45244 0.831297 0.3228675
vn -0.07358283 0.9260113 0.3702549
vn -0.3892971 0.5471541 0.7409927
vn -0.7365827 0.2945828 0.6088242
vn -0.8944399 0.4208685 -0.1511523
vn 0.21056 0.5471541 0.8101153
vn -0.9575827 -0.1158457 -0.263847
vn -0.5787256 -0.1474171 -0.8020878
vn -0.7997256 0.2630114 -0.5396888
vn -0.2314399 0.610297 -0.7576101
vn -0.8944399 0.4208685 -0.1511523
vn -0.2314399 0.7997256 -0.5539626
vn -0.4208685 -0.7157028 -0.5573503
vn -0.2314399 -0.02113146 -0.9726197
vn -0.45244 0.831297 0.3228675
vn 0.3318347 0.9433375 0
vn -0.07358283 0.9260113 0.3702549
vn -0.45244 0.831297 0.3228675
vn -0.2314399 0.7997256 -0.5539626
vn 0.5894171 -0.5262742 0.6128808
vn -0.3577257 -0.8104171 0.4639575
vn 0.08427429 0.3261542 0.9415526
vn -0.5787256 -0.08427429 0.8111563
vn 0.5894171 -0.5262742 0.6128808
vn 0.5262742 0.2945828 0.7976568
vn 0.8735599 -0.4315599 0.2250537
vn 0.5262742 0.2945828 0.7976568
vn 0.9998456 0.01043993 -0.01413786
vn 0.8735599 -0.4315599 0.2250537
vn 0.5578457 0.6734399 0.4850638
vn -0.1682971 -0.8104171 -0.5611598
vn -0.5787256 -0.6841313 0.443893
vn 0.3052742 -0.9367027 0.1714516
vn -0.07358283 -0.7788456 0.6228845
=======
vn -0.07358281 -0.7788456 0.6228845
vn 0.589417 -0.5262742 0.6128809
vn 0.8104171 -0.5578457 0.178976
vn 0.8735599 -0.43156 0.2250536
vn -0.3577256 -0.8104171 0.4639575
vn 0.3052742 -0.9367027 0.1714515
vn 0.21056 0.5471542 0.8101153
vn -0.07358281 0.9260113 0.3702549
vn 0.5262742 0.7050112 0.4753889
vn 0.3318348 0.9433376 0
vn 0.3999885 0.7997255 -0.4477145
vn 0.5578457 0.6734399 0.4850639
vn 0.7157028 0.6418684 -0.2752717
vn 0.9998456 0.01043997 -0.01413699
vn -0.8944398 0.4208685 -0.1511528
vn -0.7365827 0.2945828 0.6088242
vn -0.9891541 -0.02113145 0.1453535
vn -0.9575827 -0.1158457 -0.263847
vn -0.8944398 -0.2737028 0.3536441
vn 0.3999885 0.7997255 -0.4477145
vn 0.3368457 0.389297 -0.8573114
vn 0.7157028 0.6418684 -0.2752717
vn -0.2314399 0.610297 -0.7576101
vn -0.2314399 -0.02113145 -0.9726197
vn 0.2421314 -0.6209885 -0.7454835
vn 0.7788456 -0.4631314 -0.4229762
vn 0.9051313 0.0420114 -0.4230513
vn -0.2314399 0.7997255 -0.5539626
vn 0.3318348 0.9433376 0
vn -0.07358281 -0.7788456 0.6228845
vn -0.610297 -0.7157028 0.339569
vn -0.3577256 -0.8104171 0.4639575
vn -0.5787256 -0.6841313 0.443893
vn -0.4208685 -0.7157028 -0.5573502
vn -0.610297 -0.3684171 0.7012891
vn -0.9575827 -0.1158457 -0.263847
vn -0.5787256 -0.0842743 0.8111563
vn -0.8944398 -0.2737028 0.3536441
vn -0.9891541 -0.02113145 0.1453535
vn 0.2421314 -0.6209885 -0.7454835
vn 0.4947028 -0.8104171 -0.3138365
vn 0.7788456 -0.4631314 -0.4229762
vn 0.8104171 -0.5578457 0.178976
vn 0.3052742 -0.9367027 0.1714515
vn -0.1682971 -0.8104171 -0.5611598
vn -0.1998685 -0.6841313 -0.7014391
vn -0.1682971 -0.8104171 -0.5611598
vn 0.2421314 -0.6209885 -0.7454835
vn -0.4208685 -0.7157028 -0.5573502
vn -0.5787256 -0.1474171 -0.8020878
vn -0.2314399 -0.02113145 -0.9726197
vn -0.5787256 -0.6841313 0.443893
vn -0.8944398 -0.2737028 0.3536441
vn -0.7365827 0.2945828 0.6088242
vn -0.610297 -0.3684171 0.7012891
vn -0.4208685 0.1682971 0.891373
vn -0.5787256 -0.0842743 0.8111563
vn 0.0842743 0.3261542 0.9415526
vn -0.389297 0.5471542 0.7409927
vn 0.3052742 0.3261542 0.8946682
vn 0.5262742 0.2945828 0.7976568
vn 0.0842743 0.3261542 0.9415526
vn 0.5578457 0.6734399 0.4850639
vn 0.589417 -0.5262742 0.6128809
vn -0.4208685 0.1682971 0.891373
vn -0.389297 0.5471542 0.7409927
vn 0.21056 0.5471542 0.8101153
vn 0.5262742 0.7050112 0.4753889
vn 0.9964666 -0.0839895 0
vn 0.8104171 -0.5578457 0.178976
vn 0.8735599 -0.43156 0.2250536
vn 0.7788456 -0.4631314 -0.4229762
vn 0.9998456 0.01043997 -0.01413699
vn 0.9051313 0.0420114 -0.4230513
vn 0.7157028 0.6418684 -0.2752717
vn -0.4524399 0.831297 0.3228676
vn -0.07358281 0.9260113 0.3702549
vn -0.389297 0.5471542 0.7409927
vn -0.7365827 0.2945828 0.6088242
vn -0.8944398 0.4208685 -0.1511528
vn 0.21056 0.5471542 0.8101153
vn -0.9575827 -0.1158457 -0.263847
vn -0.5787256 -0.1474171 -0.8020878
vn -0.7997255 0.2630114 -0.5396889
vn -0.2314399 0.610297 -0.7576101
vn -0.8944398 0.4208685 -0.1511528
vn -0.2314399 0.7997255 -0.5539626
vn -0.4208685 -0.7157028 -0.5573502
vn -0.2314399 -0.02113145 -0.9726197
vn -0.4524399 0.831297 0.3228676
vn 0.3318348 0.9433376 0
vn -0.07358281 0.9260113 0.3702549
vn -0.4524399 0.831297 0.3228676
vn -0.2314399 0.7997255 -0.5539626
vn 0.589417 -0.5262742 0.6128809
vn -0.3577256 -0.8104171 0.4639575
vn 0.0842743 0.3261542 0.9415526
vn -0.5787256 -0.0842743 0.8111563
vn 0.589417 -0.5262742 0.6128809
vn 0.5262742 0.2945828 0.7976568
vn 0.8735599 -0.43156 0.2250536
vn 0.5262742 0.2945828 0.7976568
vn 0.9998456 0.01043997 -0.01413699
vn 0.8735599 -0.43156 0.2250536
vn 0.5578457 0.6734399 0.4850639
vn -0.1682971 -0.8104171 -0.5611598
vn -0.5787256 -0.6841313 0.443893
vn 0.3052742 -0.9367027 0.1714515
vn -0.07358281 -0.7788456 0.6228845
>>>>>>> 6d5f1550931c572d52883107850b24b40c30b745
g Group41593_0
f 3/3/3 2/2/2 1/1/1
f 3/3/3 4/4/4 2/2/2
f 2/2/2 5/5/5 1/1/1
f 1/1/1 6/6/6 3/3/3
f 9/9/9 8/8/8 7/7/7
f 9/9/9 10/10/10 8/8/8
f 10/10/10 9/9/9 11/11/11
f 11/11/11 9/9/9 12/12/12
f 11/11/11 12/12/12 13/13/13
f 12/12/12 14/14/14 13/13/13
f 17/17/17 16/16/16 15/15/15
f 15/15/15 18/18/18 17/17/17
f 17/17/17 19/19/19 16/16/16
f 22/22/22 21/21/21 20/20/20
f 21/21/21 23/23/23 20/20/20
f 21/21/21 24/24/24 23/23/23
f 21/21/21 25/25/25 24/24/24
f 26/26/26 25/25/25 21/21/21
f 21/21/21 27/27/27 26/26/26
f 21/21/21 22/22/22 27/27/27
f 23/23/23 28/28/28 20/20/20
f 28/28/28 29/29/29 20/20/20
f 32/32/32 31/31/31 30/30/30
f 33/33/33 30/30/30 31/31/31
f 34/34/34 33/33/33 31/31/31
f 32/32/32 35/35/35 31/31/31
f 36/36/36 34/34/34 31/31/31
f 35/35/35 32/32/32 37/37/37
f 35/35/35 38/38/38 31/31/31
f 38/38/38 39/39/39 31/31/31
f 31/31/31 39/39/39 36/36/36
f 42/42/42 41/41/41 40/40/40
f 42/42/42 43/43/43 41/41/41
f 44/44/44 41/41/41 43/43/43
f 45/45/45 41/41/41 44/44/44
f 40/40/40 41/41/41 45/45/45
f 48/48/48 47/47/47 46/46/46
f 46/46/46 47/47/47 49/49/49
f 50/50/50 46/46/46 49/49/49
f 48/48/48 46/46/46 51/51/51
f 50/50/50 51/51/51 46/46/46
f 49/49/49 47/47/47 52/52/52
f 55/55/55 54/54/54 53/53/53
f 54/54/54 55/55/55 56/56/56
f 57/57/57 56/56/56 55/55/55
f 56/56/56 57/57/57 58/58/58
f 59/59/59 54/54/54 56/56/56
f 62/62/62 61/61/61 60/60/60
f 60/60/60 61/61/61 63/63/63
f 62/62/62 64/64/64 61/61/61
f 62/62/62 60/60/60 65/65/65
f 66/66/66 65/65/65 60/60/60
f 60/60/60 67/67/67 66/66/66
f 68/68/68 67/67/67 60/60/60
f 60/60/60 63/63/63 68/68/68
f 71/71/71 70/70/70 69/69/69
f 70/70/70 72/72/72 69/69/69
f 71/71/71 69/69/69 73/73/73
f 72/72/72 74/74/74 69/69/69
f 69/69/69 75/75/75 73/73/73
f 74/74/74 75/75/75 69/69/69
f 78/78/78 77/77/77 76/76/76
f 79/79/79 78/78/78 76/76/76
f 79/79/79 76/76/76 80/80/80
f 78/78/78 81/81/81 77/77/77
f 84/84/84 83/83/83 82/82/82
f 84/84/84 85/85/85 83/83/83
f 86/86/86 85/85/85 84/84/84
f 84/84/84 82/82/82 86/86/86
f 85/85/85 86/86/86 87/87/87
f 83/83/83 88/88/88 82/82/82
f 85/85/85 89/89/89 83/83/83
f 90/90/90 87/87/87 86/86/86
f 93/93/93 92/92/92 91/91/91
f 94/94/94 93/93/93 91/91/91
f 97/97/97 96/96/96 95/95/95
f 98/98/98 96/96/96 97/97/97
f 101/101/101 100/100/100 99/99/99
f 104/104/104 103/103/103 102/102/102
f 105/105/105 102/102/102 103/103/103
f 108/108/108 107/107/107 106/106/106
f 108/108/108 109/109/109 107/107/107
