g msh_rock
v 0.02984869 0.9525664 0.2378062
v -0.02946121 0.9525664 0.2378062
v -0.0142535 0.9708156 0.1724132
v 0.04657713 0.961691 0.1724132
v 0.0009541512 0.002087414 0.4294227
v -0.05227268 0.002087414 0.4066113
v -0.05227268 0.06595957 0.4066113
v 0.0009541512 0.06595957 0.4294227
v -0.04010653 0.2864707 0.3746752
v -0.0005666018 0.2864707 0.3974867
v -0.03554428 0.5069819 0.3138445
v 0.1621554 0.0005666018 0.2241193
v 0.1621554 0.06443882 0.2241193
v 0.1530308 0.06443882 -0.4434972
v 0.1530308 0.0005666018 -0.4434972
v 0.1545515 0.2621384 -0.003995657
v 0.1545515 0.2621384 0.2165155
v 0.1545515 0.356426 -0.05874327
v 0.1545515 0.356426 -0.2245068
v -0.04162735 0.0005666018 -0.5317016
v 0.1530308 0.0005666018 -0.4434972
v 0.1530308 0.06443882 -0.4434972
v -0.04162735 0.06443882 -0.5317016
v -0.1587263 0.0005666018 -0.4434972
v -0.1587263 0.06443882 -0.4434972
v -0.1267902 0.06443882 0.2241193
v -0.1267902 0.0005666018 0.2241193
v -0.1176656 0.28495 0.2165155
v -0.1115826 0.3503429 -0.2245068
v -0.128311 0.505461 0.2073908
v -0.1191864 0.505461 -0.1545515
v -0.05227268 0.06595957 0.4066113
v -0.04010653 0.2864707 0.3746752
v -0.08572954 0.5373972 0.2089117
v -0.03554428 0.5069819 0.3138445
v -0.06443882 0.7244515 0.1952247
v -0.06443882 0.7244515 -0.1226155
v -0.08572954 0.545001 -0.1302193
v -0.02946121 0.9434418 -0.08307552
v -0.03706503 0.7259722 0.3016784
v -0.05227268 0.002087414 0.4066113
v -0.01273274 0.8354674 0.2986369
v -0.01729506 0.8567582 0.239327
v 0.002474904 1.024042 0.1328733
v -0.0142535 0.9708156 0.1724132
v -0.02946121 0.9525664 0.2378062
v 0.1530308 0.06443882 -0.4434972
v 0.1089286 0.3777167 -0.2245068
v -0.04162735 0.06443882 -0.5317016
v 0.1545515 0.356426 -0.2245068
v -0.1115826 0.3503429 -0.2245068
v -0.1191864 0.505461 -0.1545515
v 0.1241362 0.5343557 -0.1560723
v 0.03593177 0.7259722 0.2788669
v 0.03441101 0.5069819 0.2925538
v -0.03554428 0.5069819 0.3138445
v -0.03706503 0.7259722 0.3016784
v 0.01007873 0.8354674 0.2940745
v -0.01273274 0.8354674 0.2986369
v -0.0005666018 0.2864707 0.3974867
v 0.08459631 0.5784579 -0.05570173
v 0.06482634 0.7244515 0.03250271
v 0.06482634 0.7244515 -0.1226155
v 0.08459631 0.564771 -0.1302193
v 0.09372088 0.9525664 -0.003995657
v 0.06482634 0.7244515 0.1952247
v 0.08459631 0.5039403 0.1465602
v 0.08459631 0.5039403 0.2089117
v 0.08611706 0.28495 0.2165155
v 0.08611706 0.28495 0.00512892
v 0.1089286 0.4005282 -0.05113944
v 0.1241362 0.5480426 -0.06634709
v 0.1241362 0.5343557 -0.1560723
v 0.1089286 0.3777167 -0.2245068
v 0.0617848 1.002752 0.1328733
v 0.04657713 0.961691 0.1724132
v 0.02984869 0.9525664 0.2378062
v -0.06443882 0.7244515 -0.1226155
v -0.08572954 0.545001 -0.1302193
v 0.08459631 0.564771 -0.1302193
v 0.06482634 0.7244515 -0.1226155
v -0.02946121 0.9434418 -0.08307552
v 0.02984869 0.9434418 -0.08307552
v 0.04049405 0.2864707 0.2925538
v -0.0005666018 0.2864707 0.3974867
v 0.03441101 0.5069819 0.2925538
v 0.0009541512 0.06595957 0.4294227
v 0.03289023 0.06595957 0.3396975
v 0.03289023 0.002087414 0.3396975
v 0.0009541512 0.002087414 0.4294227
v 0.1621554 0.0005666018 0.2241193
v 0.03289023 0.002087414 0.3396975
v 0.03289023 0.06595957 0.3396975
v 0.1621554 0.06443882 0.2241193
v 0.04049405 0.2864707 0.2925538
v 0.08611706 0.28495 0.2165155
v 0.03441101 0.5069819 0.2925538
v 0.08459631 0.5039403 0.2089117
v 0.03593177 0.7259722 0.2788669
v 0.06482634 0.7244515 0.1952247
v 0.01007873 0.8354674 0.2940745
v 0.0161618 0.8567582 0.239327
v 0.02984869 0.9525664 0.2378062
v 0.0161618 0.8567582 0.239327
v -0.01729506 0.8567582 0.239327
v 0.06482634 0.7244515 0.1952247
v -0.02946121 0.9525664 0.2378062
v -0.02946121 0.9525664 0.2378062
v -0.01729506 0.8567582 0.239327
v -0.06443882 0.7244515 0.1952247
v 0.0161618 0.8567582 0.239327
v 0.01007873 0.8354674 0.2940745
v -0.01273274 0.8354674 0.2986369
v -0.01729506 0.8567582 0.239327
v 0.1089286 0.3777167 -0.2245068
v 0.1545515 0.356426 -0.2245068
v 0.1545515 0.356426 -0.05874327
v 0.1089286 0.4005282 -0.05113944
v 0.08611706 0.28495 0.2165155
v 0.1545515 0.2621384 0.2165155
v 0.1621554 0.06443882 0.2241193
v 0.08611706 0.28495 0.2165155
v 0.08611706 0.28495 0.00512892
v 0.1545515 0.2621384 -0.003995657
v 0.1545515 0.2621384 0.2165155
v 0.1089286 0.4005282 -0.05113944
v 0.1545515 0.356426 -0.05874327
v 0.08611706 0.28495 0.00512892
v 0.1545515 0.2621384 -0.003995657
v 0.08459631 0.564771 -0.1302193
v 0.1241362 0.5343557 -0.1560723
v 0.1241362 0.5480426 -0.06634709
v 0.08459631 0.5784579 -0.05570173
v 0.08459631 0.5039403 0.1465602
v -0.1176656 0.28495 0.2165155
v -0.128311 0.505461 0.2073908
v -0.08572954 0.5373972 0.2089117
v -0.08572954 0.5373972 0.2089117
v -0.128311 0.505461 0.2073908
v -0.1191864 0.505461 -0.1545515
v -0.08572954 0.545001 -0.1302193
v 0.1241362 0.5343557 -0.1560723
v 0.08459631 0.564771 -0.1302193
v 0.02984869 0.9434418 -0.08307552
v 0.0617848 1.002752 0.1328733
v 0.002474904 1.024042 0.1328733
v -0.02946121 0.9434418 -0.08307552
v 0.09372088 0.9525664 -0.003995657
v -0.1587263 0.0005666018 -0.4434972
v -0.04162735 0.0005666018 -0.5317016
v -0.04162735 0.06443882 -0.5317016
v -0.1587263 0.06443882 -0.4434972
v -0.04162735 0.06443882 -0.5317016
v -0.1115826 0.3503429 -0.2245068
v -0.1587263 0.06443882 -0.4434972
v 0.04657713 0.961691 0.1724132
v -0.0142535 0.9708156 0.1724132
v 0.002474904 1.024042 0.1328733
v 0.0617848 1.002752 0.1328733
v 0.06482634 0.7244515 -0.1226155
v 0.09372088 0.9525664 -0.003995657
v 0.02984869 0.9434418 -0.08307552
vt 0.5728868 0.846622
vt 0.5497543 0.8620437
vt 0.5690314 0.900598
vt 0.5921639 0.8658991
vt 0.5613205 0.009994648
vt 0.5304771 0.009994648
vt 0.5304771 0.06397061
vt 0.5574651 0.06397061
vt 0.5343326 0.2528865
vt 0.5536097 0.249031
vt 0.5343326 0.4495132
vt 0.6846942 0.03698263
vt 0.6808387 0.08710317
vt 0.981562 0.2297539
vt 0.9892728 0.175778
vt 0.7618027 0.2952962
vt 0.6615616 0.249031
vt 0.7772244 0.3878264
vt 0.8504775 0.4225252
vt 0.06011518 0.1642117
vt 0.006139223 0.3261396
vt 0.0331272 0.356983
vt 0.07939231 0.1989105
vt 0.1256574 0.1025249
vt 0.1333683 0.1565008
vt 0.4418023 0.08324774
vt 0.4379469 0.02927178
vt 0.4533686 0.2721636
vt 0.2528865 0.3839709
vt 0.4649349 0.4533686
vt 0.303007 0.5034891
vt 0.5304771 0.06397061
vt 0.5343326 0.2528865
vt 0.4765012 0.4880674
vt 0.5343326 0.4495132
vt 0.484212 0.6461399
vt 0.3377058 0.6962605
vt 0.3145733 0.5497543
vt 0.3724047 0.8774654
vt 0.5304771 0.638429
vt 0.5304771 0.009994648
vt 0.5343326 0.7348147
vt 0.5112 0.7618027
vt 0.4765012 0.9160197
vt 0.484212 0.8658991
vt 0.5073445 0.8427666
vt 0.0331272 0.356983
vt 0.1834888 0.5343326
vt 0.07939231 0.1989105
vt 0.1642117 0.5574651
vt 0.2528865 0.3839709
vt 0.303007 0.5034891
vt 0.2258985 0.6422845
vt 0.565176 0.6461399
vt 0.5728868 0.457224
vt 0.5343326 0.4495132
vt 0.5304771 0.638429
vt 0.5536097 0.7309592
vt 0.5343326 0.7348147
vt 0.5536097 0.249031
vt 0.7386701 0.5960194
vt 0.6808387 0.6962605
vt 0.7502364 0.7348147
vt 0.773369 0.6037302
vt 0.6692724 0.8890317
vt 0.6075857 0.6577062
vt 0.6538507 0.4880674
vt 0.6230074 0.4726457
vt 0.6422845 0.2837299
vt 0.7386701 0.3338504
vt 0.7618027 0.4340915
vt 0.7502364 0.5613205
vt 0.7887906 0.5728868
vt 0.8427666 0.4649349
vt 0.6075857 0.900598
vt 0.5921639 0.8658991
vt 0.5728868 0.846622
vt 0.3377058 0.6962605
vt 0.3145733 0.5497543
vt 0.249031 0.6422845
vt 0.2875853 0.746381
vt 0.3724047 0.8774654
vt 0.3492721 0.900598
vt 0.5998748 0.2683082
vt 0.5536097 0.249031
vt 0.5728868 0.457224
vt 0.5574651 0.06397061
vt 0.5998748 0.07553689
vt 0.6037302 0.02156093
vt 0.5613205 0.009994648
vt 0.6846942 0.03698263
vt 0.6037302 0.02156093
vt 0.5998748 0.07553689
vt 0.6808387 0.08710317
vt 0.5998748 0.2683082
vt 0.6422845 0.2837299
vt 0.5728868 0.457224
vt 0.6230074 0.4726457
vt 0.565176 0.6461399
vt 0.6075857 0.6577062
vt 0.5536097 0.7309592
vt 0.5690314 0.7656581
vt 0.5728868 0.846622
vt 0.5690314 0.7656581
vt 0.5497543 0.7772244
vt 0.6075857 0.6577062
vt 0.5497543 0.8620437
vt 0.5073445 0.8427666
vt 0.5112 0.7618027
vt 0.484212 0.6461399
vt 0.5690314 0.7656581
vt 0.5536097 0.7309592
vt 0.5343326 0.7348147
vt 0.5497543 0.7772244
vt 0.8427666 0.4649349
vt 0.8504775 0.4225252
vt 0.7772244 0.3878264
vt 0.7618027 0.4340915
vt 0.6422845 0.2837299
vt 0.6615616 0.249031
vt 0.6808387 0.08710317
vt 0.6422845 0.2837299
vt 0.7386701 0.3338504
vt 0.7618027 0.2952962
vt 0.6615616 0.249031
vt 0.7618027 0.4340915
vt 0.7772244 0.3878264
vt 0.7386701 0.3338504
vt 0.7618027 0.2952962
vt 0.773369 0.6037302
vt 0.7887906 0.5728868
vt 0.7502364 0.5613205
vt 0.7386701 0.5960194
vt 0.6538507 0.4880674
vt 0.4533686 0.2721636
vt 0.4649349 0.4533686
vt 0.4765012 0.4880674
vt 0.4765012 0.4880674
vt 0.4649349 0.4533686
vt 0.303007 0.5034891
vt 0.3145733 0.5497543
vt 0.2258985 0.6422845
vt 0.249031 0.6422845
vt 0.7078267 0.927586
vt 0.6075857 0.900598
vt 0.5960194 0.9468631
vt 0.7078267 0.9777065
vt 0.6692724 0.8890317
vt 0.1256574 0.1025249
vt 0.06011518 0.1642117
vt 0.07939231 0.1989105
vt 0.1333683 0.1565008
vt 0.07939231 0.1989105
vt 0.2528865 0.3839709
vt 0.1333683 0.1565008
vt 0.5921639 0.8658991
vt 0.5690314 0.900598
vt 0.5960194 0.9468631
vt 0.6075857 0.900598
vt 0.7502364 0.7348147
vt 0.6692724 0.8890317
vt 0.7078267 0.927586
vn 0.07977861 0.967236 0.2410185
vn 0.07977861 0.967236 0.2410185
vn 0.07977861 0.967236 0.2410185
vn 0.07977861 0.967236 0.2410185
vn -0.3961372 0.01540452 0.9180621
vn -0.3961372 0.01540452 0.9180621
vn -0.3961372 0.07885998 0.9147986
vn -0.3961372 0.07885998 0.9147986
vn -0.4595925 0.2057708 0.8639636
vn -0.4595925 0.1740431 0.8709097
vn -0.4913203 0.2374986 0.837973
vn 0.9998813 0.01540451 0
vn 0.9998813 0.01540451 0
vn 0.9998813 0.01540451 0
vn 0.9998813 0.01540451 0
vn 0.9998813 0.01540451 0
vn 0.9988909 0.04708558 0
vn 0.9998668 -0.0163229 0
vn 0.9998668 -0.0163229 0
vn 0.4287834 0.01540452 -0.903276
vn 0.4287834 0.01540452 -0.903276
vn 0.4287834 0.01540452 -0.903276
vn 0.4287834 0.01540452 -0.903276
vn -0.9989637 0.01540452 0.04282896
vn -0.9988889 0.04712879 0
vn -0.967236 0.04713231 0.2494656
vn -0.967236 0.01540452 0.2534112
vn -0.967236 0.07885998 0.2413207
vn -0.9988889 0.04712879 0
vn -0.9988452 -0.04804518 0
vn -0.9988452 -0.04804518 0
vn -0.9355083 0.04713231 0.3501468
vn -0.9037805 0.1105877 0.4134623
vn -0.967236 0.1105877 0.2285277
vn -0.9037805 0.1105877 0.4134623
vn -0.967236 0.1423154 0.21024
vn -0.9900041 0.141039 0
vn -0.9939283 0.1100302 0
vn -0.967236 0.2057708 0.1487042
vn -0.9355083 0.1423154 0.3233737
vn -0.9355083 0.01540452 0.3529687
vn -0.9355083 0.2374986 0.2615696
vn -0.9355083 0.2374986 0.2615696
vn -0.967236 0.2057708 0.1487042
vn -0.967236 0.1740431 -0.1848338
vn -0.967236 0.1740431 -0.1848338
vn 0.3336003 0.5547757 -0.7621908
vn 0.04805088 0.5547757 -0.8306112
vn 0.2066894 0.6499588 -0.7313228
vn 0.2701449 0.5865034 -0.7635676
vn -0.07885998 0.5865034 -0.8060985
vn -0.04713231 0.3961372 -0.9169809
vn -0.04713231 0.3961372 -0.9169809
vn 0.2701449 0.01540452 0.9626964
vn 0.3018726 0.2057708 0.9308767
vn 0.3018726 0.2057708 0.9308767
vn 0.2701449 0.01540452 0.9626964
vn 0.2701449 -0.04805088 0.9616199
vn 0.2701449 -0.04805088 0.9616199
vn 0.2701449 0.3644094 0.8911945
vn 0.9900222 0.140912 0
vn 0.9998668 -0.0163229 0
vn 0.9998813 0.01540451 0
vn 0.9900222 0.140912 0
vn 0.9988473 -0.04800114 0
vn 0.9988909 0.04708558 0
vn 0.9998813 0.01540451 0
vn 0.9988909 0.04708558 0
vn 0.9998813 0.01540451 0
vn 0.9988473 -0.04800114 0
vn 0.9938391 -0.1108324 0
vn 0.9938391 -0.1108324 0
vn 0.9938391 -0.1108324 0
vn 0.9938391 -0.1108324 0
vn 0.9681545 0.07885998 0.2376087
vn 0.9046991 0.1105877 0.4114484
vn 0.9681545 0.1105877 0.2246044
vn -0.01540452 0.1105877 -0.993747
vn -0.01540452 0.04713231 -0.9987699
vn -0.01540452 0.04713231 -0.9987699
vn -0.01540452 0.1105877 -0.993747
vn -0.01540452 0.1740431 -0.9846175
vn -0.01540452 0.1740431 -0.9846175
vn 0.9364269 0.04713231 0.3476827
vn 0.9364269 0.04713231 0.3476827
vn 0.9364269 0.01540452 0.3505245
vn 0.9364269 0.01540452 0.3505245
vn 0.9364269 0.01540452 0.3505245
vn 0.9364269 0.01540452 0.3505245
vn 0.9364269 0.01540452 0.3505245
vn 0.6826051 0.01540452 0.730625
vn 0.6826051 0.01540452 0.730625
vn 0.7143328 0.1105877 0.691013
vn 0.6826051 0.07885998 0.72652
vn 0.809516 0.1105877 0.5765884
vn 0.809516 0.1105877 0.5765884
vn 0.8729714 0.04713231 0.4854889
vn 0.8729714 0.04713231 0.4854889
vn 0.9364269 0.1423154 0.3207039
vn 0.9364269 0.1423154 0.3207039
vn 0.9364269 0.2057708 0.2841884
vn 0.9364269 0.2057708 0.2841884
vn 0.1115063 0.01540452 0.9936444
vn 0.365328 -0.04805088 0.9296378
vn -0.3644094 -0.01632315 0.9310958
vn 0.5556943 -0.07977861 0.8275501
vn -0.1105877 0.01540452 0.993747
vn -0.1105877 0.01540452 0.993747
vn -0.3644094 -0.01632315 0.9310958
vn -0.5865034 -0.04805088 0.8085201
vn 0.01632315 0.9355083 0.3529275
vn 0.01632315 0.9355083 0.3529275
vn 0.01632315 0.9355083 0.3529275
vn 0.01632315 0.9355083 0.3529275
vn 0.4915573 0.8708453 0
vn 0.4286389 0.9034758 0
vn 0.6508774 0.7451419 -0.1453344
vn 0.6826051 0.7134143 -0.1583993
vn 0.01632315 0.04713231 0.9987553
vn 0.01632315 0.04713231 0.9987553
vn 0.01632315 0.04713231 0.9987553
vn 0.2979255 0.9545891 0
vn 0.2979255 0.9545891 0
vn 0.2979255 0.9545891 0
vn 0.2979255 0.9545891 0
vn 0.4605111 0.3326817 0.8229534
vn 0.3970557 0.3644094 0.8423494
vn 0.3336003 0.4278648 0.8400253
vn 0.2701449 0.4913203 0.8280254
vn 0.2701449 0.7768697 -0.5687664
vn 0.3018726 0.8085974 -0.5050181
vn 0.6191497 0.7768697 0.1145738
vn 0.6191497 0.7768697 0.1145738
vn 0.6508774 0.7134143 0.2596125
vn -0.04713231 0.04713231 0.9977761
vn -0.04713231 0.04713231 0.9977761
vn -0.04713231 0.04713231 0.9977761
vn -0.6749925 0.7378247 0
vn -0.6749925 0.7378247 0
vn -0.4913203 0.7768697 -0.3937992
vn -0.3961372 0.7768697 -0.4894372
vn 0.3018726 0.8085974 -0.5050181
vn 0.2701449 0.7768697 -0.5687664
vn 0.1749617 0.9355083 -0.3069407
vn 0.1749617 0.9355083 -0.3069407
vn 0.1749617 0.9355083 -0.3069407
vn 0.1749617 0.9355083 -0.3069407
vn 0.2384171 0.9355083 -0.2607326
vn -0.5865034 0.01540452 -0.8098003
vn -0.5865034 0.01540452 -0.8098003
vn -0.5865034 0.01540452 -0.8098003
vn -0.5865034 0.01540452 -0.8098003
vn -0.4913203 0.5865034 -0.6439084
vn -0.4913203 0.5865034 -0.6439084
vn -0.4913203 0.5865034 -0.6439084
vn 0.143234 0.5865034 0.7971811
vn 0.143234 0.5865034 0.7971811
vn 0.143234 0.5865034 0.7971811
vn 0.143234 0.5865034 0.7971811
vn 0.7460606 0.2374986 -0.6220836
vn 0.7460606 0.2374986 -0.6220836
vn 0.7460606 0.2374986 -0.6220836
g msh_rock_0
f 3/3/3 2/2/2 1/1/1
f 4/4/4 3/3/3 1/1/1
f 7/7/7 6/6/6 5/5/5
f 8/8/8 7/7/7 5/5/5
f 9/9/9 7/7/7 8/8/8
f 10/10/10 9/9/9 8/8/8
f 9/9/9 10/10/10 11/11/11
f 14/14/14 13/13/13 12/12/12
f 15/15/15 14/14/14 12/12/12
f 14/14/14 16/16/16 13/13/13
f 16/16/16 17/17/17 13/13/13
f 18/18/18 16/16/16 14/14/14
f 19/19/19 18/18/18 14/14/14
f 22/22/22 21/21/21 20/20/20
f 23/23/23 22/22/22 20/20/20
f 26/26/26 25/25/25 24/24/24
f 27/27/27 26/26/26 24/24/24
f 26/26/26 28/28/28 25/25/25
f 28/28/28 29/29/29 25/25/25
f 29/29/29 28/28/28 30/30/30
f 31/31/31 29/29/29 30/30/30
f 26/26/26 32/32/32 28/28/28
f 32/32/32 33/33/33 28/28/28
f 28/28/28 33/33/33 34/34/34
f 33/33/33 35/35/35 34/34/34
f 34/34/34 35/35/35 36/36/36
f 36/36/36 37/37/37 34/34/34
f 37/37/37 38/38/38 34/34/34
f 39/39/39 37/37/37 36/36/36
f 35/35/35 40/40/40 36/36/36
f 41/41/41 32/32/32 26/26/26
f 27/27/27 41/41/41 26/26/26
f 40/40/40 42/42/42 36/36/36
f 42/42/42 43/43/43 36/36/36
f 44/44/44 39/39/39 36/36/36
f 45/45/45 44/44/44 36/36/36
f 46/46/46 45/45/45 36/36/36
f 49/49/49 48/48/48 47/47/47
f 48/48/48 50/50/50 47/47/47
f 51/51/51 48/48/48 49/49/49
f 48/48/48 51/51/51 52/52/52
f 53/53/53 48/48/48 52/52/52
f 56/56/56 55/55/55 54/54/54
f 57/57/57 56/56/56 54/54/54
f 57/57/57 54/54/54 58/58/58
f 59/59/59 57/57/57 58/58/58
f 56/56/56 60/60/60 55/55/55
f 63/63/63 62/62/62 61/61/61
f 64/64/64 63/63/63 61/61/61
f 63/63/63 65/65/65 62/62/62
f 66/66/66 62/62/62 65/65/65
f 67/67/67 62/62/62 66/66/66
f 67/67/67 61/61/61 62/62/62
f 68/68/68 67/67/67 66/66/66
f 68/68/68 69/69/69 67/67/67
f 69/69/69 70/70/70 67/67/67
f 67/67/67 70/70/70 71/71/71
f 72/72/72 67/67/67 71/71/71
f 73/73/73 72/72/72 71/71/71
f 74/74/74 73/73/73 71/71/71
f 75/75/75 66/66/66 65/65/65
f 76/76/76 66/66/66 75/75/75
f 77/77/77 66/66/66 76/76/76
f 80/80/80 79/79/79 78/78/78
f 81/81/81 80/80/80 78/78/78
f 81/81/81 78/78/78 82/82/82
f 83/83/83 81/81/81 82/82/82
f 86/86/86 85/85/85 84/84/84
f 84/84/84 85/85/85 87/87/87
f 88/88/88 84/84/84 87/87/87
f 88/88/88 87/87/87 89/89/89
f 87/87/87 90/90/90 89/89/89
f 93/93/93 92/92/92 91/91/91
f 94/94/94 93/93/93 91/91/91
f 95/95/95 93/93/93 94/94/94
f 96/96/96 95/95/95 94/94/94
f 97/97/97 95/95/95 96/96/96
f 98/98/98 97/97/97 96/96/96
f 99/99/99 97/97/97 98/98/98
f 100/100/100 99/99/99 98/98/98
f 101/101/101 99/99/99 100/100/100
f 102/102/102 101/101/101 100/100/100
f 105/105/105 104/104/104 103/103/103
f 103/103/103 104/104/104 106/106/106
f 107/107/107 105/105/105 103/103/103
f 110/110/110 109/109/109 108/108/108
f 113/113/113 112/112/112 111/111/111
f 114/114/114 113/113/113 111/111/111
f 117/117/117 116/116/116 115/115/115
f 118/118/118 117/117/117 115/115/115
f 121/121/121 120/120/120 119/119/119
f 124/124/124 123/123/123 122/122/122
f 125/125/125 124/124/124 122/122/122
f 128/128/128 127/127/127 126/126/126
f 129/129/129 127/127/127 128/128/128
f 132/132/132 131/131/131 130/130/130
f 133/133/133 132/132/132 130/130/130
f 132/132/132 133/133/133 134/134/134
f 137/137/137 136/136/136 135/135/135
f 140/140/140 139/139/139 138/138/138
f 141/141/141 140/140/140 138/138/138
f 142/142/142 140/140/140 141/141/141
f 143/143/143 142/142/142 141/141/141
f 146/146/146 145/145/145 144/144/144
f 147/147/147 146/146/146 144/144/144
f 148/148/148 144/144/144 145/145/145
f 151/151/151 150/150/150 149/149/149
f 152/152/152 151/151/151 149/149/149
f 155/155/155 154/154/154 153/153/153
f 158/158/158 157/157/157 156/156/156
f 159/159/159 158/158/158 156/156/156
f 162/162/162 161/161/161 160/160/160
