g shieldPart03
v 0.363944 0.06112342 0.06331726
v 0.363944 0.769575 0.06331726
v 0.951598 0.6823006 0.03771088
v -0.2695006 -0.08422224 0.03402557
v 0.3620656 0.7698545 0.06326904
v 0.363944 0.769575 0.06331726
v -0.1699546 0.9454085 0.0406073
v -0.1343596 -0.4969656 0.0452301
v -0.4727428 -0.5677374 0.01206909
v -0.3018087 -0.7650269 0.03094666
v -0.6003888 -0.309202 -0.004879761
v -0.6446814 -0.01857139 -0.01133484
v -0.4204073 0.8010635 0.01732849
v -0.6903354 0.8212041 -0.01838196
v -0.1699546 0.9454085 0.0406073
v -0.3018087 -0.7650269 0.03094666
v -0.3538134 -0.8065016 0.177088
v -0.5367276 -0.5988665 0.1557126
v -0.4727428 -0.5677374 0.01206909
v -0.6721383 -0.3276967 0.1367551
v -0.6003888 -0.309202 -0.004879761
v -0.7235736 -0.02332966 0.129007
v -0.6446814 -0.01857139 -0.01133484
v -0.6903223 0.8209627 -0.01838013
v -0.7763246 0.8453301 0.1205515
v -0.3538134 -0.8065016 0.177088
v -0.4631485 -0.9454085 0.01324402
v -0.6682761 -0.7036042 -0.01489502
v -0.5367276 -0.5988665 0.1557126
v -0.8175964 -0.3896511 -0.03938415
v -0.6721383 -0.3276967 0.1367551
v -0.8865669 -0.04027493 -0.05184753
v -0.7235736 -0.02332966 0.129007
v -0.7763246 0.8453301 0.1205515
v -0.951598 0.9294153 -0.06444214
v -0.2998554 -0.7650269 0.03104248
v -0.4979472 -0.5988665 -0.1428613
v -0.3229087 -0.8065016 -0.1225375
v -0.4702873 -0.5677374 0.01221985
v -0.6275209 -0.3276967 -0.160965
v -0.5975591 -0.309202 -0.004679565
v -0.6766937 -0.02332966 -0.1686767
v -0.6417218 -0.01857139 -0.01111511
v -0.6872276 0.8209627 -0.01813965
v -0.7271121 0.8453301 -0.177088
v -0.3229087 -0.8065016 -0.1225375
v -0.6682761 -0.7036042 -0.01489502
v -0.4631485 -0.9454085 0.01324402
v -0.4979472 -0.5988665 -0.1428613
v -0.8175964 -0.3896511 -0.03938415
v -0.6275209 -0.3276967 -0.160965
v -0.8865669 -0.04027493 -0.05184753
v -0.6766937 -0.02332966 -0.1686767
v -0.951598 0.9294153 -0.06444214
v -0.7271121 0.8453301 -0.177088
vt 0.3318512 0.5005853
vt 0.1645797 0.5004996
vt 0.1854151 0.6389863
vt 0.3665759 0.3512057
vt 0.1645149 0.5000575
vt 0.1645797 0.5004996
vt 0.1233981 0.3747193
vt 0.463451 0.3831828
vt 0.4801109 0.3032938
vt 0.5265189 0.3432729
vt 0.4196562 0.273163
vt 0.3518655 0.2620293
vt 0.157921 0.3159162
vt 0.1539439 0.2525029
vt 0.1233981 0.3747193
vt 0.7852111 0.6382271
vt 0.8180123 0.6382271
vt 0.8180123 0.5703994
vt 0.7852111 0.5703994
vt 0.8180123 0.4936014
vt 0.7852111 0.4936014
vt 0.8180123 0.4171616
vt 0.7852111 0.4171616
vt 0.7852111 0.2265367
vt 0.8180124 0.2265367
vt 0.8180123 0.6382271
vt 0.8721086 0.6382271
vt 0.8721086 0.5703994
vt 0.8180123 0.5703994
vt 0.8721086 0.4936014
vt 0.8180123 0.4936014
vt 0.8721086 0.4171616
vt 0.8180123 0.4171616
vt 0.8180124 0.2265367
vt 0.8721086 0.2265367
vt 0.7852111 0.6382271
vt 0.8180123 0.5703994
vt 0.8180123 0.6382271
vt 0.7852111 0.5703994
vt 0.8180123 0.4936014
vt 0.7852111 0.4936014
vt 0.8180123 0.4171616
vt 0.7852111 0.4171616
vt 0.7852111 0.2265367
vt 0.8180124 0.2265367
vt 0.8180123 0.6382271
vt 0.8721086 0.5703994
vt 0.8721086 0.6382271
vt 0.8180123 0.5703994
vt 0.8721086 0.4936014
vt 0.8180123 0.4936014
vt 0.8721086 0.4171616
vt 0.8180123 0.4171616
vt 0.8721086 0.2265367
vt 0.8180124 0.2265367
vn 0.0002330561 6.637821E-05 1
vn 0.04353197 0 0.999052
vn 0.04353198 0 0.999052
vn -0.06980242 0.0002788687 0.9975609
vn -0.04454057 -0.001249194 0.9990068
vn -0.04454057 -0.001249193 0.9990068
vn -0.04454057 -0.001249194 0.9990068
vn -0.05739351 0.003652891 0.998345
vn -0.1058615 0.00118698 0.9943802
vn -0.05494487 0.003958547 0.9984816
vn -0.1095947 0.0006723738 0.9939761
vn -0.1273206 -0.0005617515 0.9918615
vn -0.1247615 -0.000559244 0.9921865
vn -0.1247615 -0.0005592438 0.9921865
vn -0.0941079 0.002734774 0.9955581
vn 0.6119244 0.6824458 0.3997701
vn 0.6114365 0.6830034 0.3995644
vn 0.7330902 0.5202397 0.4380975
vn 0.73315 0.5201444 0.4381106
vn 0.8359678 0.2887745 0.4666551
vn 0.8365132 0.2868859 0.4668427
vn 0.8596113 0.07181901 0.5058759
vn 0.8596565 0.07217056 0.5057492
vn 0.8614982 0.0542036 0.5048591
vn 0.8614983 0.05420361 0.5048591
vn -0.50741 -0.4544336 0.7321374
vn -0.505357 -0.4557277 0.7327529
vn -0.6286368 -0.3459761 0.6965029
vn -0.6292754 -0.3452055 0.6963086
vn -0.7121097 -0.1984805 0.673428
vn -0.7128751 -0.1963396 0.6732456
vn -0.7365421 -0.05298343 0.6743133
vn -0.7365915 -0.05380935 0.6741939
vn -0.7372724 -0.03951406 0.6744391
vn -0.7372723 -0.03951406 0.6744391
vn 0.6793382 0.674009 -0.2901924
vn 0.8230644 0.5106908 -0.2485155
vn 0.6779882 0.6751777 -0.2906321
vn 0.8233461 0.5102747 -0.2484368
vn 0.9334426 0.281773 -0.2220108
vn 0.9341601 0.2795083 -0.2218559
vn 0.9712152 0.06975188 -0.2277624
vn 0.9712074 0.0700938 -0.2276904
vn 0.9725328 0.0525639 -0.226753
vn 0.9725328 0.05256389 -0.226753
vn -0.3602072 -0.4516482 -0.8162504
vn -0.4205721 -0.3444868 -0.8393139
vn -0.3593534 -0.4532771 -0.8157236
vn -0.4216093 -0.3426605 -0.8395413
vn -0.4755734 -0.1980207 -0.8570984
vn -0.4762068 -0.1951007 -0.8574164
vn -0.4702905 -0.0529883 -0.8809194
vn -0.4705495 -0.05370914 -0.8807376
vn -0.471546 -0.03967941 -0.8809483
vn -0.4715461 -0.0396794 -0.8809483
g shieldPart03_0
f 3/3/3 2/2/2 1/1/1
f 5/5/5 4/4/4 1/1/1
f 1/1/1 6/6/6 5/5/5
f 5/5/5 7/7/7 4/4/4
f 1/1/1 4/4/4 8/8/8
f 8/8/8 4/4/4 9/9/9
f 8/8/8 9/9/9 10/10/10
f 4/4/4 11/11/11 9/9/9
f 4/4/4 12/12/12 11/11/11
f 12/12/12 4/4/4 13/13/13
f 14/14/14 12/12/12 13/13/13
f 13/13/13 4/4/4 15/15/15
f 18/18/18 17/17/17 16/16/16
f 19/19/19 18/18/18 16/16/16
f 20/20/20 18/18/18 19/19/19
f 21/21/21 20/20/20 19/19/19
f 22/22/22 20/20/20 21/21/21
f 23/23/23 22/22/22 21/21/21
f 23/23/23 24/24/24 22/22/22
f 24/24/24 25/25/25 22/22/22
f 28/28/28 27/27/27 26/26/26
f 29/29/29 28/28/28 26/26/26
f 30/30/30 28/28/28 29/29/29
f 31/31/31 30/30/30 29/29/29
f 32/32/32 30/30/30 31/31/31
f 33/33/33 32/32/32 31/31/31
f 32/32/32 33/33/33 34/34/34
f 35/35/35 32/32/32 34/34/34
f 38/38/38 37/37/37 36/36/36
f 37/37/37 39/39/39 36/36/36
f 37/37/37 40/40/40 39/39/39
f 40/40/40 41/41/41 39/39/39
f 40/40/40 42/42/42 41/41/41
f 42/42/42 43/43/43 41/41/41
f 44/44/44 43/43/43 42/42/42
f 45/45/45 44/44/44 42/42/42
f 48/48/48 47/47/47 46/46/46
f 47/47/47 49/49/49 46/46/46
f 47/47/47 50/50/50 49/49/49
f 50/50/50 51/51/51 49/49/49
f 50/50/50 52/52/52 51/51/51
f 52/52/52 53/53/53 51/51/51
f 53/53/53 52/52/52 54/54/54
f 55/55/55 53/53/53 54/54/54
